<?xml version="1.0" standalone="no"?>
<!DOCTYPE svg PUBLIC "-//W3C//DTD SVG 20010904//EN"
 "http://www.w3.org/TR/2001/REC-SVG-20010904/DTD/svg10.dtd">
<svg version="1.0" xmlns="http://www.w3.org/2000/svg"
 width="1132.000000pt" height="1280.000000pt" viewBox="0 0 1132.000000 1280.000000"
 preserveAspectRatio="xMidYMid meet">
<metadata>
Created by potrace 1.15, written by Peter Selinger 2001-2017
</metadata>
<g transform="translate(0.000000,1280.000000) scale(0.100000,-0.100000)"
fill="#000000" stroke="none">
<path d="M5531 12785 c-131 -30 -269 -115 -343 -213 -21 -27 -220 -365 -444
-753 -224 -387 -700 -1212 -1059 -1834 -359 -621 -1317 -2282 -2130 -3690
-813 -1408 -1489 -2583 -1502 -2612 -53 -116 -66 -260 -33 -387 29 -113 73
-190 160 -276 86 -87 163 -131 276 -160 76 -20 131 -20 5204 -20 5073 0 5128
0 5204 20 113 29 190 73 276 160 87 86 131 163 160 276 33 127 20 271 -33 387
-13 29 -689 1204 -1502 2612 -2105 3647 -2729 4728 -3174 5500 -216 374 -413
711 -438 748 -71 105 -190 192 -322 233 -68 22 -224 27 -300 9z"/>
<path d="M3980 890 l0 -80 145 0 145 0 0 -390 0 -390 95 0 95 0 0 390 0 390
135 0 135 0 0 80 0 80 -375 0 -375 0 0 -80z"/>
<path d="M6340 890 l0 -80 90 0 90 0 0 80 0 80 -90 0 -90 0 0 -80z"/>
<path d="M5063 730 c-110 -23 -186 -83 -232 -179 -24 -51 -26 -67 -26 -181 0
-122 1 -127 33 -192 62 -126 176 -187 328 -175 134 10 223 66 276 175 32 65
33 70 33 192 -1 108 -4 132 -24 175 -31 70 -104 141 -168 165 -62 23 -162 32
-220 20z m141 -155 c91 -43 127 -226 67 -344 -57 -111 -206 -109 -265 3 -39
77 -34 214 11 284 44 68 117 90 187 57z"/>
<path d="M6915 731 c-101 -19 -177 -78 -221 -173 -27 -59 -29 -71 -29 -193 0
-119 2 -135 26 -185 36 -77 71 -115 137 -147 50 -24 69 -28 147 -28 73 0 100
5 143 24 64 29 125 95 146 158 28 82 28 83 -68 83 l-84 0 -11 -32 c-6 -18 -23
-45 -38 -60 -23 -24 -35 -28 -81 -28 -48 0 -58 4 -87 33 -18 18 -38 51 -44 72
-15 57 -14 173 4 231 20 69 52 96 118 102 46 4 57 1 84 -22 18 -15 37 -42 43
-61 l11 -34 85 -3 c81 -3 84 -2 84 19 0 43 -40 129 -77 165 -21 21 -58 46 -83
56 -52 23 -147 33 -205 23z"/>
<path d="M5573 717 c3 -7 53 -86 111 -175 l106 -163 -38 -57 c-22 -31 -73
-110 -115 -174 l-76 -118 107 0 108 0 49 91 c27 50 54 98 60 106 9 11 22 -7
67 -89 l55 -103 107 -3 c58 -1 106 0 106 3 0 3 -49 79 -110 170 -60 91 -110
169 -110 174 0 5 50 84 110 176 61 91 110 168 110 171 0 2 -48 3 -107 2 l-108
-3 -54 -103 c-30 -56 -58 -99 -62 -95 -4 5 -30 52 -59 106 l-52 97 -105 0
c-82 0 -104 -3 -100 -13z"/>
<path d="M6340 380 l0 -350 90 0 90 0 0 350 0 350 -90 0 -90 0 0 -350z"/>
</g>
</svg>
