<?xml version="1.0" standalone="no"?>
<!DOCTYPE svg PUBLIC "-//W3C//DTD SVG 20010904//EN"
 "http://www.w3.org/TR/2001/REC-SVG-20010904/DTD/svg10.dtd">
<svg version="1.0" xmlns="http://www.w3.org/2000/svg"
 width="1280.000000pt" height="1238.000000pt" viewBox="0 0 1280.000000 1238.000000"
 preserveAspectRatio="xMidYMid meet">
<metadata>
Created by potrace 1.15, written by Peter Selinger 2001-2017
</metadata>
<g transform="translate(0.000000,1238.000000) scale(0.100000,-0.100000)"
fill="#000000" stroke="none">
<path d="M8915 12370 c-23 -4 -104 -29 -180 -53 -77 -25 -259 -77 -405 -116
-501 -132 -996 -263 -1345 -356 -192 -51 -439 -116 -548 -145 -108 -29 -203
-50 -211 -47 -9 4 -20 -17 -36 -68 -29 -92 -20 -125 41 -149 85 -34 128 -12
130 65 l1 44 9 -39 c5 -21 16 -50 25 -65 15 -26 15 -33 -9 -122 -14 -52 -42
-157 -62 -234 -21 -77 -39 -143 -41 -147 -2 -3 -28 3 -57 13 -28 11 -95 35
-147 53 -52 19 -115 41 -140 50 -25 9 -52 18 -61 20 -8 2 -32 11 -52 20 -21 8
-40 15 -42 16 -41 6 -63 14 -58 23 3 5 1 7 -4 4 -6 -4 -127 34 -270 84 -364
129 -497 158 -676 146 -159 -11 -397 -81 -462 -136 -11 -10 -81 -41 -157 -70
l-136 -54 -6 -91 c-3 -50 -10 -392 -16 -761 -23 -1500 -32 -1977 -38 -2117
l-7 -146 -110 50 c-204 94 -303 116 -380 84 -21 -9 -66 -19 -100 -22 -89 -8
-157 -24 -188 -46 -32 -23 -63 -79 -76 -140 -12 -54 -16 -4245 -4 -4306 10
-55 25 -55 40 0 l11 43 1 -57 c1 -42 5 -58 14 -58 20 0 43 29 64 78 l18 43 -4
-171 c-1 -94 0 -182 3 -196 9 -34 74 -73 217 -130 121 -48 150 -67 132 -85
-19 -19 -267 108 -344 178 l-26 24 -1384 -597 c-761 -328 -1458 -628 -1549
-667 -151 -65 -170 -77 -227 -133 -35 -34 -63 -71 -63 -81 0 -26 50 -94 92
-126 126 -95 246 -103 472 -31 196 64 2069 815 2711 1088 132 56 291 122 354
147 79 30 127 55 152 79 37 35 37 35 37 120 1 147 -3 134 33 113 l32 -18 -7
-253 -7 -252 59 -38 c33 -21 98 -55 146 -77 47 -21 86 -42 86 -47 0 -4 13 -8
28 -8 42 0 62 28 62 87 0 55 8 63 61 63 16 0 44 6 63 14 34 14 95 80 97 106 1
8 4 0 8 -18 5 -29 15 -38 73 -69 50 -26 74 -34 94 -29 25 7 26 9 20 55 l-6 49
143 -77 144 -76 -7 -31 c-17 -73 16 -159 75 -196 27 -18 28 -19 5 -13 -34 10
-70 33 -77 51 -26 67 -25 -97 1 -208 22 -95 58 -133 130 -141 25 -3 56 2 82
14 24 10 44 14 46 8 2 -5 17 -5 38 1 19 6 118 17 220 25 102 8 201 19 220 25
64 18 62 22 59 -115 l-4 -126 135 -70 c74 -39 140 -75 145 -80 14 -14 -92 34
-196 87 -111 57 -125 54 -319 -67 -47 -30 -117 -67 -155 -84 -39 -16 -191 -90
-340 -163 -148 -74 -355 -174 -460 -222 -104 -48 -386 -185 -625 -303 -541
-267 -769 -375 -1029 -489 -249 -109 -271 -120 -316 -160 -44 -38 -60 -69 -68
-129 -7 -55 14 -97 70 -133 85 -55 271 -88 376 -67 89 19 183 60 507 219 426
210 1146 532 1545 692 124 50 244 103 525 235 199 93 339 154 524 229 159 65
252 114 301 161 33 31 35 36 37 106 0 41 0 82 0 93 -2 12 3 16 13 12 8 -3 15
0 15 7 0 7 9 275 20 597 25 759 39 1212 41 1328 1 56 6 92 12 92 12 0 5 -335
-23 -1080 -33 -849 -35 -940 -29 -940 4 0 28 12 55 27 38 21 49 24 53 12 8
-25 59 -66 160 -128 207 -128 343 -174 516 -174 125 -1 182 10 311 59 284 108
597 422 774 779 39 77 87 194 108 259 26 79 41 113 44 99 4 -14 32 -31 94 -57
198 -83 269 -98 312 -64 16 14 15 3 -4 -34 -9 -16 -12 -29 -7 -26 29 12 401
203 771 394 564 292 952 486 1132 565 177 77 306 161 359 232 53 71 60 86 101
220 l36 117 25 -26 c37 -40 271 -150 372 -175 48 -12 87 -26 87 -31 0 -4 8 -8
18 -8 13 0 14 2 4 9 -8 5 26 8 85 8 79 0 113 5 179 27 210 68 391 257 540 561
172 352 199 665 77 874 -40 69 -98 127 -180 178 l-74 47 28 15 c15 8 97 51
182 96 96 50 162 91 175 108 20 27 21 40 19 200 -6 462 -68 769 -217 1074 -72
148 -92 173 -138 173 l-31 0 22 24 c17 18 21 30 16 47 -6 19 -78 135 -148 239
-13 20 -71 78 -128 129 -57 52 -145 130 -195 175 l-90 81 -7 770 c-4 424 -7
1212 -7 1752 0 727 -3 982 -11 985 -9 3 -9 9 0 25 6 12 11 49 11 81 0 58 -1
60 -31 71 -18 6 -52 11 -76 11 -27 0 -42 4 -38 10 3 6 4 10 1 10 -3 0 -96 27
-208 59 -401 117 -1140 332 -1728 502 -151 44 -369 111 -483 150 -219 74 -302
89 -392 69z m620 -222 c286 -82 610 -176 720 -208 110 -32 254 -75 320 -94 66
-19 114 -35 107 -35 -7 -1 -392 107 -855 240 -714 204 -848 240 -885 235 -24
-3 -96 -24 -160 -46 -109 -38 -333 -100 -1187 -325 -679 -180 -853 -226 -963
-255 -101 -27 -163 -37 -151 -26 2 2 468 126 1034 275 567 150 1097 294 1180
322 168 57 258 79 295 72 14 -3 259 -72 545 -155z m1224 -354 c10 -9 -35 -3
-49 6 -11 8 -7 9 15 4 17 -4 32 -8 34 -10z m41 -14 c8 -5 11 -10 5 -10 -5 0
-17 5 -25 10 -8 5 -10 10 -5 10 6 0 17 -5 25 -10z m-4443 -217 c-3 -10 -5 -4
-5 12 0 17 2 24 5 18 2 -7 2 -21 0 -30z m5246 -10 c-7 -2 -19 -2 -25 0 -7 3
-2 5 12 5 14 0 19 -2 13 -5z m-128 -42 c-12 -10 -756 -233 -761 -228 -2 2 58
22 134 45 75 23 245 75 377 116 256 79 264 81 250 67z m-4219 -367 c952 -310
1358 -442 1379 -448 19 -6 20 -12 14 -228 -4 -123 -10 -261 -13 -308 -16 -194
-38 -412 -71 -700 -51 -442 -64 -572 -80 -790 -19 -243 -20 -511 -3 -528 7 -7
-73 28 -177 77 -105 48 -282 123 -395 166 -113 42 -258 100 -322 128 -107 46
-118 53 -118 77 0 61 -62 95 -120 65 -17 -9 -33 -22 -36 -29 -4 -11 -14 -11
-45 -3 l-40 10 22 23 c14 15 34 24 53 24 65 0 102 84 56 130 -29 29 -94 27
-125 -5 -29 -28 -31 -51 -10 -82 14 -20 14 -23 -7 -34 -13 -6 -33 -21 -46 -32
-13 -12 -37 -26 -55 -32 -26 -8 -32 -15 -32 -40 -1 -20 -25 -67 -74 -140 -62
-94 -110 -183 -159 -295 -8 -19 -9 15 -5 135 l6 160 51 60 c29 33 85 103 125
155 116 150 148 180 193 180 48 0 73 33 63 82 -16 72 -77 91 -135 41 -26 -22
-31 -32 -27 -57 4 -27 -12 -53 -131 -210 l-135 -180 7 140 c3 76 7 166 7 199
1 33 10 231 20 440 11 209 22 489 26 621 l6 241 68 7 c114 10 386 112 407 152
5 11 13 50 17 87 l7 68 -40 38 c-42 40 -184 114 -310 160 -42 16 -90 36 -107
45 -16 9 -97 36 -180 61 -82 26 -160 50 -173 56 -13 5 -32 9 -44 9 -14 0 -19
5 -16 18 78 301 124 472 129 472 3 0 261 -83 575 -186z m3374 110 c-41 -13
-79 -23 -85 -23 -14 1 127 47 145 47 8 0 -19 -11 -60 -24z m869 -21 c-5 -21
-18 -418 -29 -883 -11 -465 -27 -1164 -37 -1555 -9 -390 -18 -712 -19 -714 -1
-1 -13 6 -25 18 -27 25 -99 49 -284 95 -339 84 -550 108 -637 71 -17 -7 -18 3
-18 116 -1 231 -37 349 -138 447 -86 85 -205 142 -406 197 -143 39 -475 105
-528 105 -60 0 -70 -14 -96 -135 -56 -260 -137 -606 -140 -594 -1 8 20 118 46
244 27 127 134 640 237 1141 l189 912 945 285 c520 157 946 285 947 286 1 1
-3 -16 -7 -36z m-1002 -19 c-3 -3 -12 -4 -19 -1 -8 3 -5 6 6 6 11 1 17 -2 13
-5z m-47 -14 c-8 -5 -22 -9 -30 -9 -10 0 -8 3 5 9 27 12 43 12 25 0z m-5155
-46 c86 -27 467 -186 461 -192 -2 -2 -82 26 -177 62 -346 130 -488 195 -284
130z m-830 -14 c-102 -44 -191 -73 -207 -67 -18 7 87 53 175 76 103 28 113 25
32 -9z m331 -16 c-3 -9 -6 -18 -6 -20 0 -3 -10 1 -22 7 -22 12 -22 12 -3 20
31 12 38 10 31 -7z m-726 -49 c0 -8 -2 -15 -4 -15 -2 0 -6 7 -10 15 -3 8 -1
15 4 15 6 0 10 -7 10 -15z m185 -35 c13 -5 14 -9 5 -9 -8 0 -24 4 -35 9 -13 5
-14 9 -5 9 8 0 24 -4 35 -9z m115 -24 c0 -1 -9 -20 -20 -42 -18 -36 -19 -37
-20 -12 0 16 -9 33 -25 45 l-26 18 46 -3 c25 -2 45 -5 45 -6z m59 -211 c-1
-55 -6 -158 -14 -230 l-12 -130 -2 125 c-2 187 11 425 20 375 5 -22 8 -85 8
-140z m456 85 c-2 -3 26 -6 62 -7 101 -4 185 -28 327 -94 72 -34 136 -66 141
-71 6 -5 13 -73 16 -151 4 -78 10 -151 13 -162 6 -16 3 -21 -11 -22 -10 -1
-37 -5 -60 -9 -30 -4 -43 -3 -43 5 0 6 -8 11 -17 11 -10 0 -31 16 -46 35 -26
32 -32 35 -83 35 -52 0 -55 1 -49 21 7 21 5 22 -45 15 -82 -11 -210 -85 -210
-122 0 -18 46 -48 61 -38 7 4 9 3 5 -4 -3 -5 0 -12 6 -15 7 -2 11 -7 8 -10 -3
-3 -28 8 -56 25 l-51 31 -8 171 c-9 226 -13 280 -20 348 l-6 58 34 -23 c19
-12 33 -24 32 -27z m4108 -140 c7 0 3 -7 -7 -15 -21 -16 -36 -11 -36 12 0 10
6 13 16 9 9 -3 21 -6 27 -6z m-3400 -59 c10 -1 44 -26 76 -56 33 -32 70 -57
88 -61 l30 -6 -22 -24 c-20 -22 -43 -123 -31 -142 2 -4 7 -32 10 -62 4 -30 15
-69 26 -87 l19 -32 -88 31 c-79 28 -89 35 -105 69 -11 22 -30 43 -47 50 l-29
11 0 124 c0 123 -9 167 -39 190 -10 8 1 9 40 3 30 -4 62 -8 72 -8z m3932 -33
c-22 -11 -50 -30 -63 -41 -17 -16 -21 -17 -17 -5 6 14 1 14 -52 2 -103 -24
-91 -13 27 26 130 43 164 49 105 18z m-745 -26 c0 -8 -1 -13 -3 -11 -1 2 -9
12 -16 22 -12 15 -12 17 3 11 9 -3 16 -13 16 -22z m130 -24 c0 -4 -4 -8 -9 -8
-6 0 -12 4 -15 8 -3 5 1 9 9 9 8 0 15 -4 15 -9z m-2069 -69 c11 -23 18 -43 15
-46 -3 -3 -10 7 -16 23 -6 16 -23 42 -38 58 -24 26 -25 27 -5 17 13 -6 32 -30
44 -52z m2417 -116 c-20 -98 -46 -221 -57 -273 -11 -52 -34 -160 -51 -240 -17
-80 -58 -273 -91 -430 -33 -156 -61 -285 -62 -286 -1 -1 -2 293 -2 654 l1 657
-23 23 c-19 19 -20 22 -5 18 45 -15 131 -6 217 23 50 16 95 30 101 30 6 1 -5
-69 -28 -176z m-3207 105 l116 -50 -10 -34 -10 -34 -76 2 c-42 2 -82 -1 -88
-5 -9 -6 -13 -35 -13 -90 0 -45 -3 -126 -7 -180 l-6 -97 -31 -8 c-20 -6 -34
-5 -38 2 -5 7 2 12 17 14 32 4 48 35 40 73 -5 22 -12 29 -31 29 -18 0 -24 5
-22 18 2 11 -8 22 -30 31 l-32 15 7 140 c4 78 8 159 8 181 0 31 5 42 20 47 30
10 57 2 186 -54z m714 2 c8 -13 -5 -13 -25 0 -13 8 -13 10 2 10 9 0 20 -4 23
-10z m-120 -83 c6 -6 1 -7 -15 -3 -14 3 -36 6 -49 6 -19 0 -21 3 -11 14 9 12
17 13 38 4 15 -7 32 -16 37 -21z m-2005 -34 c0 -13 -41 -75 -46 -70 -3 2 5 21
17 41 21 35 29 44 29 29z m367 -30 c-3 -10 -5 -4 -5 12 0 17 2 24 5 18 2 -7 2
-21 0 -30z m1115 -11 c10 -4 14 -12 10 -17 -4 -7 -19 -4 -42 7 -32 16 -33 18
-10 17 14 0 33 -3 42 -7z m1148 -12 c-8 -5 -19 -10 -25 -10 -5 0 -3 5 5 10 8
5 20 10 25 10 6 0 3 -5 -5 -10z m-850 -64 c0 -3 -4 -8 -10 -11 -5 -3 -10 -1
-10 4 0 6 5 11 10 11 6 0 10 -2 10 -4z m130 -20 c0 -2 -7 -6 -15 -10 -8 -3
-15 -1 -15 4 0 6 7 10 15 10 8 0 15 -2 15 -4z m-1746 -54 c2 -4 -4 -13 -14
-19 -15 -10 -17 -9 -13 8 5 20 18 25 27 11z m61 -49 c-4 -10 -7 -26 -7 -35 1
-24 -5 -23 -18 3 -9 15 -8 24 1 35 16 20 33 18 24 -3z m955 3 c0 -3 -4 -8 -10
-11 -5 -3 -10 -1 -10 4 0 6 5 11 10 11 6 0 10 -2 10 -4z m-1023 -58 c-21 -14
-27 -8 -27 23 l0 31 19 -23 c14 -17 16 -26 8 -31z m1042 -8 c10 0 21 -9 24
-20 6 -25 2 -25 -34 1 -16 11 -29 28 -29 37 1 16 2 15 11 0 5 -10 18 -18 28
-18z m-977 -44 c-18 -34 -32 -38 -32 -10 0 14 41 57 47 50 2 -2 -4 -20 -15
-40z m733 -6 c3 -5 -3 -10 -13 -10 -12 0 -24 -11 -32 -30 -7 -17 -26 -45 -41
-61 -16 -17 -27 -35 -24 -39 3 -5 -5 -10 -17 -12 -18 -2 -23 -9 -23 -30 1 -31
-9 -37 -19 -12 -8 20 5 41 50 84 20 19 50 54 66 78 29 43 42 50 53 32z m-813
-32 c-9 -9 -12 -7 -12 12 0 19 3 21 12 12 9 -9 9 -15 0 -24z m155 -52 c15 -25
78 -56 116 -56 20 0 37 -4 37 -10 0 -5 8 -3 18 5 9 9 41 31 70 50 l52 34 0
-112 0 -112 -43 -18 c-68 -29 -82 -43 -69 -69 6 -13 12 -59 14 -104 3 -70 7
-85 31 -117 15 -20 34 -37 42 -37 8 0 17 -4 20 -10 4 -7 -3 -7 -19 0 -25 9
-26 8 -26 -24 0 -18 -7 -39 -15 -46 -8 -7 -15 -24 -15 -37 0 -14 -9 -71 -21
-126 -11 -56 -18 -116 -16 -134 5 -29 3 -32 -21 -31 -43 1 -89 -12 -105 -30
-27 -30 -25 -70 15 -257 22 -106 78 -174 162 -201 24 -7 32 -13 20 -13 -23 -1
-23 6 -40 -718 -4 -167 -11 -273 -17 -273 -15 0 -340 130 -355 142 -30 25 -33
46 -10 67 26 25 34 21 16 -8 -15 -25 -4 -50 30 -62 15 -6 21 -5 17 1 -3 6 -2
10 4 10 21 0 24 50 5 71 -14 16 -15 20 -4 17 11 -2 15 8 16 42 0 25 4 58 9 73
5 20 3 33 -10 47 -16 17 -16 19 4 30 26 13 27 43 4 61 -16 13 -17 12 -4 -4 13
-17 12 -18 -15 -11 -16 5 -40 8 -54 7 -23 -1 -23 0 -6 12 10 8 15 19 11 25 -4
7 1 7 14 -2 18 -11 25 -10 48 4 28 17 32 42 12 63 -7 7 -8 4 -4 -7 6 -14 2
-15 -28 -8 -19 4 -42 3 -51 -2 -24 -14 -20 8 5 26 12 8 27 12 34 9 14 -5 65
24 65 36 0 4 -7 16 -16 27 -8 10 -13 14 -10 7 4 -8 -5 -10 -33 -6 -42 6 -60
-9 -40 -33 6 -8 9 -17 6 -21 -4 -3 -12 6 -18 20 -10 22 -9 31 6 54 12 18 14
28 7 31 -21 7 -14 53 8 59 16 4 18 8 9 19 -14 17 2 19 19 2 14 -14 62 8 62 28
0 20 -38 37 -71 32 -16 -3 -29 -1 -29 3 0 14 27 28 46 23 21 -6 67 31 61 49
-5 15 -57 28 -80 21 -14 -4 -18 -13 -14 -30 2 -13 0 -21 -4 -18 -5 3 -9 15 -9
28 0 25 32 60 44 49 13 -14 31 -9 49 13 26 33 13 51 -36 50 -37 -1 -42 -4 -41
-23 0 -13 -3 -23 -8 -23 -14 0 -9 43 8 61 12 13 22 16 39 9 45 -17 82 42 42
67 -6 4 -7 1 -2 -7 6 -10 4 -11 -11 -5 -10 4 -30 8 -44 9 -20 1 -25 -3 -23
-22 2 -13 -1 -21 -7 -17 -14 9 -12 38 4 60 11 16 11 22 -3 46 -14 26 -14 29 4
49 14 15 28 20 48 17 36 -5 57 29 40 66 -7 15 -7 27 1 39 8 13 7 26 -1 47 -9
24 -8 33 3 42 16 13 19 65 4 74 -6 4 -5 12 4 21 16 16 12 39 -12 67 -13 15
-13 17 1 17 9 0 18 9 22 20 7 22 -10 60 -27 60 -6 0 1 12 16 27 30 30 29 47
-3 51 -59 9 -93 -25 -54 -53 17 -12 17 -14 -1 -34 -16 -18 -17 -25 -7 -48 8
-18 9 -29 1 -37 -13 -13 -13 -49 1 -63 8 -8 5 -22 -10 -49 -14 -26 -20 -33
-21 -20 0 11 7 27 15 36 14 15 14 18 0 30 -19 16 -19 39 0 60 14 16 14 20 -2
49 -17 31 -17 32 1 46 18 14 18 16 3 33 -23 26 -21 37 11 61 19 14 22 20 11
21 -9 0 -22 7 -29 15 -17 20 2 65 27 65 14 0 13 3 -5 23 -27 29 -28 42 -2 60
18 13 19 16 5 27 -8 7 -15 18 -15 24 0 6 9 0 20 -14 17 -22 17 -27 3 -42 -16
-18 -11 -49 12 -68 12 -10 20 -9 40 4 28 19 32 42 10 66 -14 15 -13 19 4 34
11 10 17 24 14 32 -7 19 -70 29 -88 14 -12 -10 -15 -10 -15 2 0 23 21 37 49
32 18 -4 32 0 44 14 27 29 13 48 -36 47 -37 0 -42 -3 -41 -22 0 -12 -3 -20 -8
-17 -13 8 -9 50 5 62 7 6 22 9 34 6 43 -12 86 40 51 62 -7 4 -8 3 -4 -4 9 -15
4 -15 -29 2 -34 18 -58 10 -52 -15 3 -11 1 -17 -4 -13 -14 8 -11 41 7 58 14
15 14 17 0 32 -21 20 -20 30 5 55 16 16 23 18 35 8 11 -9 18 -7 34 12 11 13
19 31 17 39 -3 19 -49 25 -78 10 -23 -13 -21 -2 8 31 13 15 17 15 43 2 17 -8
33 -20 37 -27z m1019 -38 c-1 -33 -11 -36 -26 -9 -14 28 -13 37 8 37 14 0 19
-7 18 -28z m-1171 3 c3 -5 1 -12 -5 -16 -5 -3 -10 1 -10 9 0 18 6 21 15 7z m5
-86 c10 -12 10 -15 -4 -15 -9 0 -16 7 -16 15 0 8 2 15 4 15 2 0 9 -7 16 -15z
m1157 -21 c-4 -15 -5 -14 -6 4 -1 15 -5 21 -13 16 -7 -5 -8 -3 -3 5 10 18 28
-2 22 -25z m-435 -12 c5 -5 -11 -9 -38 -10 -41 -2 -45 0 -34 13 13 15 55 14
72 -3z m-728 -74 c-10 -16 -22 -7 -17 13 4 15 8 17 14 8 4 -7 5 -17 3 -21z
m852 -75 c39 -29 119 -42 150 -25 28 15 45 -20 30 -60 -8 -21 -7 -33 2 -49 10
-16 10 -24 1 -35 -7 -8 -9 -29 -6 -49 3 -19 2 -35 -4 -35 -12 0 -12 -67 1 -75
6 -4 4 -12 -5 -21 -17 -17 -19 -42 -6 -63 6 -9 5 -23 -2 -38 -7 -17 -7 -30 2
-50 8 -18 9 -29 1 -37 -5 -5 -10 -30 -10 -54 0 -41 -56 -278 -69 -294 -3 -4
-44 14 -91 40 -81 46 -85 49 -80 77 14 81 -4 525 -20 525 -5 0 7 15 26 34 l34
34 0 101 c0 56 3 101 6 101 3 0 21 -12 40 -27z m307 12 c-3 -9 -8 -14 -10 -11
-3 3 -2 9 2 15 9 16 15 13 8 -4z m-1158 -19 c12 -12 12 -15 -1 -20 -23 -9 -24
-8 -24 14 0 24 6 25 25 6z m1110 -6 c-10 -11 -15 -28 -12 -40 6 -25 1 -26 -12
-2 -11 20 10 62 31 62 6 0 3 -9 -7 -20z m-600 -40 c33 -7 67 -20 75 -28 13
-13 7 -14 -54 -8 -72 7 -128 26 -158 53 -30 27 -20 32 30 13 26 -10 74 -23
107 -30z m602 -57 c-8 -16 -12 -34 -9 -42 3 -8 0 -11 -7 -7 -17 11 -13 47 7
62 24 19 24 18 9 -13z m-1113 -4 c-8 -14 -24 -10 -24 6 0 9 6 12 15 9 8 -4 12
-10 9 -15z m0 -78 c16 -17 16 -19 -4 -24 -16 -4 -20 0 -20 19 0 29 2 29 24 5z
m1096 -6 c-7 -8 -10 -25 -6 -40 8 -30 -10 -34 -19 -5 -7 21 21 77 32 66 3 -3
0 -12 -7 -21z m-573 -71 c-3 -3 -12 -4 -19 -1 -8 3 -5 6 6 6 11 1 17 -2 13 -5z
m-532 -24 c3 -5 1 -10 -4 -10 -6 0 -11 5 -11 10 0 6 2 10 4 10 3 0 8 -4 11
-10z m1092 -21 c-8 -21 -13 -26 -15 -14 -5 21 5 45 17 45 5 0 4 -13 -2 -31z
m-1097 -79 c0 -5 -4 -10 -10 -10 -5 0 -10 5 -10 10 0 6 5 10 10 10 6 0 10 -4
10 -10z m0 -90 c0 -5 -4 -10 -10 -10 -5 0 -10 5 -10 10 0 6 5 10 10 10 6 0 10
-4 10 -10z m-5 -89 c3 -5 1 -12 -5 -16 -5 -3 -10 1 -10 9 0 18 6 21 15 7z m57
-151 c-12 -21 -18 -25 -20 -14 -4 16 15 44 29 44 4 0 0 -13 -9 -30z m-7 -105
c0 -38 -6 -43 -25 -20 -10 13 -10 19 5 35 10 11 19 20 19 20 1 0 1 -16 1 -35z
m270 -107 c47 -49 40 -50 -13 -3 -22 18 -48 55 -39 55 1 0 25 -23 52 -52z
m2184 -230 c17 -6 21 -12 14 -19 -8 -8 -22 -3 -50 16 -38 27 -30 28 36 3z
m-1943 5 c-7 -7 -98 -5 -105 3 -2 2 22 4 54 4 32 0 55 -3 51 -7z m1872 -113
c-136 -163 -225 -310 -252 -414 -9 -32 -20 -146 -26 -254 -20 -376 -42 -482
-102 -482 -16 0 -2 158 21 240 22 74 31 156 50 446 7 100 18 174 32 220 26 86
98 227 156 305 l43 60 54 -43 53 -43 -29 -35z m-1558 78 c0 -6 -27 -114 -60
-240 -33 -125 -60 -235 -60 -243 0 -7 -3 -16 -7 -18 -8 -5 -6 462 2 498 4 18
11 20 65 17 33 -2 60 -8 60 -14z m1920 -64 c113 -36 239 -79 280 -96 83 -32
492 -230 487 -235 -2 -2 -147 56 -323 128 -322 132 -627 249 -646 249 -6 0 68
-47 165 -105 97 -58 179 -110 182 -115 9 -14 -4 -47 -13 -35 -4 6 -16 15 -27
22 -83 48 -345 218 -345 223 0 8 22 30 30 30 3 0 98 -30 210 -66z m-2805 26
c3 -5 1 -10 -4 -10 -6 0 -11 5 -11 10 0 6 2 10 4 10 3 0 8 -4 11 -10z m2664
-182 c75 -73 157 -144 182 -157 l46 -24 -29 -91 c-22 -66 -28 -102 -24 -131 3
-22 6 -48 7 -59 0 -10 3 -16 6 -13 3 4 26 -8 51 -25 50 -35 167 -87 195 -88 9
0 17 -4 17 -8 0 -12 -63 -33 -69 -24 -22 33 -74 31 -112 -4 -15 -13 -17 -11
-23 18 -6 31 -41 78 -58 78 -4 0 -15 -18 -24 -39 -8 -21 -23 -41 -32 -44 -11
-3 -26 -32 -42 -81 -13 -42 -29 -81 -35 -85 -10 -8 -231 -89 -422 -155 -110
-38 -109 -38 -92 29 5 22 14 155 19 295 10 270 18 324 57 407 42 92 216 333
240 333 3 0 67 -60 142 -132z m1266 -17 c0 -141 -8 -165 -20 -59 -5 44 9 198
18 198 1 0 2 -63 2 -139z m-2805 -268 c-7 -180 -14 -329 -15 -331 -3 -3 -124
55 -133 63 -2 2 32 138 75 303 43 165 80 299 82 297 2 -2 -2 -152 -9 -332z
m-1135 187 c3 -5 1 -10 -4 -10 -6 0 -11 5 -11 10 0 6 2 10 4 10 3 0 8 -4 11
-10z m-1252 -126 c148 -48 467 -173 467 -184 0 -4 -60 16 -132 45 -73 28 -200
75 -283 104 -166 57 -196 69 -177 70 7 1 63 -15 125 -35z m4865 12 c95 -22
259 -73 240 -75 -5 -1 -88 12 -185 28 -98 16 -199 32 -225 36 -46 6 -56 13
-41 28 13 14 108 6 211 -17z m392 -50 c0 -3 -4 -8 -10 -11 -5 -3 -10 -1 -10 4
0 6 5 11 10 11 6 0 10 -2 10 -4z m-5325 -21 c33 -9 84 -23 114 -32 l54 -15 -6
-607 c-3 -333 -13 -761 -22 -951 -10 -202 -15 -410 -11 -502 3 -87 3 -158 0
-158 -2 0 -27 11 -55 25 -27 14 -75 31 -105 37 l-54 11 0 1103 c0 895 2 1104
13 1104 7 0 40 -7 72 -15z m1362 -65 c9 -118 -3 -162 -31 -117 -8 12 -5 22 13
41 23 24 23 27 8 44 -18 19 -22 44 -10 55 12 13 18 7 20 -23z m3943 3 c0 -5
-4 -14 -9 -22 -7 -11 -13 -11 -32 0 l-24 13 25 7 c35 10 40 10 40 2z m-5082
-28 c-3 -3 -9 2 -12 12 -6 14 -5 15 5 6 7 -7 10 -15 7 -18z m4812 11 c0 -3
-26 -12 -57 -21 -66 -18 -178 -61 -306 -117 -48 -21 -90 -38 -93 -38 -2 0 4
17 14 38 11 20 27 61 37 90 l19 52 193 0 c106 0 193 -2 193 -4z m-4506 -127
c2 -2 0 -209 -4 -459 -5 -250 -14 -752 -20 -1115 -7 -363 -13 -661 -15 -663
-1 -2 -36 13 -76 33 l-74 37 2 531 c1 293 5 798 9 1123 l6 592 84 -37 c46 -21
86 -40 88 -42z m5096 40 c0 -5 -7 -6 -15 -3 -8 4 -15 13 -15 21 0 13 3 13 15
3 8 -7 15 -16 15 -21z m-5883 -161 c-2 -29 -3 -6 -3 52 0 58 1 81 3 53 2 -29
2 -77 0 -105z m7298 93 l20 -24 -22 12 c-13 6 -23 19 -23 28 0 9 1 14 3 12 1
-2 11 -15 22 -28z m-4414 -401 l-8 -95 -2 105 c0 58 2 137 7 175 l7 70 3 -80
c1 -44 -2 -123 -7 -175z m4618 84 c61 -26 110 -48 108 -50 -4 -5 -340 127
-352 137 -15 14 123 -35 244 -87z m-4812 -21 c-3 -10 -5 -2 -5 17 0 19 2 27 5
18 2 -10 2 -26 0 -35z m-1067 -13 c14 -7 25 -7 38 1 15 10 34 6 102 -22 l83
-34 -7 -270 c-4 -148 -11 -382 -16 -520 -11 -302 -27 -771 -40 -1189 -5 -170
-12 -311 -15 -314 -6 -6 -184 78 -191 90 -3 4 1 16 8 27 10 16 10 28 1 50 -9
24 -8 31 3 35 19 7 18 45 -2 68 -16 16 -16 18 0 24 20 8 21 47 1 64 -14 12
-13 15 4 32 21 18 21 18 1 38 -26 26 -25 32 5 60 27 25 33 49 13 51 -27 2 -64
-3 -82 -13 -17 -9 -18 -7 -12 22 3 18 6 39 6 47 0 9 9 4 23 -13 21 -24 25 -25
45 -13 24 15 35 36 27 50 -11 16 -77 23 -86 8 -6 -9 -9 1 -9 30 l0 45 20 -22
c12 -12 27 -22 34 -22 21 0 47 35 40 55 -6 14 -15 16 -51 12 l-43 -5 0 36 0
35 24 -22 c26 -25 54 -23 77 5 11 14 10 18 -6 30 -10 8 -35 14 -55 14 -35 0
-36 1 -32 30 4 30 5 30 19 10 18 -25 45 -26 68 0 14 16 16 24 7 42 -6 13 -11
17 -11 10 -1 -10 -6 -10 -22 -1 -12 6 -30 9 -40 6 -16 -4 -19 0 -19 26 0 26 2
29 13 15 21 -27 52 -30 78 -9 l24 20 -48 21 c-26 11 -52 18 -57 15 -6 -4 -10
7 -10 24 0 17 5 31 10 31 6 0 10 -4 10 -9 0 -16 40 -23 55 -11 18 15 19 44 3
69 -11 18 -14 18 -40 5 l-28 -15 0 77 c0 64 2 75 14 65 11 -9 12 -18 3 -42
-14 -36 -1 -62 32 -64 30 -2 47 30 32 62 -8 17 -8 28 1 42 6 10 8 26 4 36 -5
14 -14 17 -46 12 -39 -5 -40 -4 -40 26 0 24 3 28 12 19 7 -7 27 -12 45 -12 27
0 34 5 39 27 4 14 3 33 -3 42 -6 10 -6 24 0 42 8 21 7 33 -6 53 -10 14 -13 26
-8 26 6 0 15 9 21 19 7 15 5 25 -9 43 -19 23 -19 23 1 45 31 33 17 56 -32 51
-40 -4 -40 -3 -40 32 l1 35 18 -22 c24 -28 35 -29 62 -2 28 28 10 49 -42 49
-35 0 -39 2 -39 26 0 26 1 26 25 10 20 -13 29 -14 50 -4 51 23 23 58 -46 58
-23 0 -26 3 -21 25 4 23 6 24 21 11 14 -12 21 -13 41 -3 14 7 26 22 28 34 3
19 -3 23 -42 28 -41 6 -46 10 -46 33 0 24 1 24 18 9 24 -22 45 -21 65 1 23 25
8 42 -42 49 -35 5 -41 9 -41 29 0 28 6 30 27 9 22 -22 46 -15 57 18 7 20 7 34
-2 48 -10 15 -9 24 2 42 22 32 6 50 -38 45 -32 -4 -36 -2 -36 20 0 22 1 22 21
8 19 -13 24 -13 45 1 15 9 24 25 24 40 0 24 -2 25 -45 21 -42 -5 -45 -4 -45
18 0 26 11 30 40 14z m279 -108 c0 -24 -1 -25 -9 -7 -12 28 -12 47 0 40 6 -3
10 -18 9 -33z m-289 -86 c0 -3 -7 -6 -15 -6 -9 0 -15 9 -15 21 0 18 2 19 15 5
8 -8 15 -17 15 -20z m2039 -223 c1 -30 -3 -53 -9 -53 -6 0 -9 43 -9 113 2 100
3 105 9 52 4 -33 8 -84 9 -112z m4540 126 c28 -10 31 -15 31 -52 l-1 -42 -19
39 c-11 21 -27 44 -37 52 -22 16 -15 17 26 3z m545 -48 c4 -7 1 -8 -8 -5 -10
4 -16 18 -15 38 l1 31 8 -27 c4 -14 11 -31 14 -37z m-6 -236 c0 -82 -4 -177
-8 -210 -4 -38 -7 27 -7 180 -1 132 3 227 7 210 4 -16 8 -97 8 -180z m144 183
c-7 -7 -12 -20 -12 -30 0 -27 -13 -22 -32 12 l-17 30 36 0 c29 0 34 -3 25 -12z
m-892 -48 c8 -5 11 -10 5 -10 -5 0 -17 5 -25 10 -8 5 -10 10 -5 10 6 0 17 -5
25 -10z m60 -25 c14 -8 21 -14 15 -14 -5 0 -21 6 -35 14 -14 8 -20 14 -15 14
6 0 21 -6 35 -14z m-3540 -44 c0 -9 -5 -23 -10 -31 -8 -12 -10 -11 -10 5 0 11
-7 31 -16 43 -15 22 -15 22 10 10 14 -6 26 -18 26 -27z m3615 9 c3 -6 -1 -7
-9 -4 -18 7 -21 14 -7 14 6 0 13 -4 16 -10z m135 -90 c6 -11 9 -20 7 -20 -2 0
-12 9 -22 20 -10 11 -13 20 -7 20 6 0 16 -9 22 -20z m688 -230 c67 -275 123
-576 121 -650 -2 -58 -31 75 -64 290 -18 124 -50 290 -69 369 -20 80 -36 149
-36 155 0 26 12 -13 48 -164z m-3928 130 c8 -5 11 -10 5 -10 -5 0 -17 5 -25
10 -8 5 -10 10 -5 10 6 0 17 -5 25 -10z m-3431 -64 c-12 -13 -12 -69 1 -82 8
-8 6 -15 -5 -24 -16 -14 -21 -66 -6 -72 5 -1 3 -12 -5 -23 -14 -18 -15 -10
-13 84 2 57 5 117 7 133 4 26 5 27 18 11 8 -11 9 -22 3 -27z m3742 -82 c12
-15 8 -21 -31 -55 -67 -57 -151 -99 -212 -105 l-53 -5 72 20 c39 11 89 31 110
44 49 31 96 85 89 103 -7 19 9 17 25 -2z m253 -123 c-4 -17 -9 -30 -11 -27 -3
2 -2 19 2 36 4 17 9 30 11 27 2 -2 1 -18 -2 -36z m-576 -37 c6 -2 12 -11 12
-20 0 -19 -23 -15 -91 15 l-44 19 55 -5 c30 -2 61 -6 68 -9z m542 -175 c0 -5
-4 -9 -10 -9 -5 0 -10 7 -10 16 0 8 5 12 10 9 6 -3 10 -10 10 -16z m3856 -295
c-81 -41 -150 -73 -153 -71 -10 10 263 147 292 146 6 0 -57 -34 -139 -75z
m-586 -48 c-58 -21 -85 -29 -78 -21 9 10 80 34 98 34 8 0 -1 -6 -20 -13z
m-8350 -451 l275 -136 3 -199 c1 -110 0 -200 -2 -200 -31 0 -36 15 -36 114 l0
101 -165 83 c-186 92 -200 95 -308 58 -52 -17 -67 -20 -62 -9 3 8 5 84 5 169
0 85 3 154 8 154 4 0 131 -61 282 -135z m1086 91 c10 -8 17 -16 14 -18 -3 -2
-15 -12 -27 -22 l-23 -19 0 36 c0 40 6 44 36 23z m-14 -108 c-7 -7 -12 -21
-12 -33 0 -12 5 -26 12 -33 10 -9 8 -16 -5 -29 -16 -16 -17 -13 -17 62 0 75 1
78 17 62 13 -13 15 -19 5 -29z m-3 -162 c9 -10 8 -16 -4 -26 -13 -11 -15 -8
-15 14 0 30 3 32 19 12z m4850 -149 c12 -20 30 -41 39 -47 9 -5 12 -10 6 -10
-34 -1 -95 104 -93 162 1 29 2 26 13 -18 7 -28 23 -67 35 -87z m-6249 119 c0
-2 -7 -6 -15 -10 -8 -3 -15 -1 -15 4 0 6 7 10 15 10 8 0 15 -2 15 -4z m-42
-188 c-1 -103 -2 -118 -7 -68 -6 67 -3 200 5 200 2 0 3 -60 2 -132z m385 -24
c-7 -18 -10 -18 -22 5 -9 16 -8 18 8 14 12 -3 17 -11 14 -19z m6017 -73 c-69
-32 -158 -75 -199 -95 -40 -21 -75 -36 -77 -33 -10 10 353 185 386 186 8 1
-41 -25 -110 -58z m-4993 -48 c-3 -10 -5 -4 -5 12 0 17 2 24 5 18 2 -7 2 -21
0 -30z m42 -22 c8 -6 23 -5 36 1 18 8 45 -2 153 -56 l131 -66 -20 -67 c-12
-38 -24 -81 -29 -98 -26 -94 -52 -180 -55 -183 -1 -2 -48 20 -104 47 -98 50
-100 52 -89 76 9 20 8 28 -6 44 -15 16 -15 19 -1 31 25 21 15 54 -18 58 -16 2
-35 -2 -43 -9 -11 -9 -14 -8 -14 4 0 22 34 39 48 25 7 -7 18 -3 37 16 36 36
19 59 -37 54 -26 -2 -38 0 -38 9 0 13 11 17 43 13 22 -2 57 27 57 47 0 21 -50
36 -77 24 -26 -12 -31 1 -10 24 14 17 18 17 36 6z m5476 -91 c-3 -5 -12 -10
-18 -10 -7 0 -6 4 3 10 19 12 23 12 15 0z m-230 -110 c-404 -200 -1008 -490
-1011 -487 -7 7 1161 576 1181 576 6 -1 -71 -41 -170 -89z m-1586 -16 c-23
-25 -69 -54 -86 -54 -4 0 6 9 23 19 18 11 40 33 50 50 12 20 22 27 28 21 6 -6
1 -19 -15 -36z m-3312 -110 c-19 -90 -48 -187 -53 -181 -3 3 4 40 15 83 10 44
25 113 32 154 10 53 14 66 17 44 2 -17 -4 -62 -11 -100z m6243 104 c0 -6 -6
-5 -15 2 -8 7 -15 14 -15 16 0 2 7 1 15 -2 8 -4 15 -11 15 -16z m-3186 -66 c4
-7 4 -12 -1 -13 -4 0 -51 -6 -103 -13 l-95 -12 235 -116 c256 -126 365 -192
440 -267 64 -64 85 -104 68 -131 -15 -24 -28 -26 -28 -5 0 8 5 15 10 15 19 0
9 21 -31 65 -44 48 -100 79 -164 91 l-40 8 32 6 c29 5 11 16 -210 140 -256
144 -328 179 -365 180 -46 0 -11 18 50 24 109 12 137 23 161 64 l21 36 7 -30
c3 -17 9 -36 13 -42z m-3439 -16 c-18 -13 -20 -13 -23 1 -2 9 2 19 10 24 10 6
10 9 1 9 -7 0 -13 6 -13 12 0 7 10 3 22 -10 22 -21 22 -22 3 -36z m2053 -401
c-8 -369 -14 -469 -31 -484 -9 -7 -10 44 -5 212 14 438 27 631 42 605 1 -2 -2
-151 -6 -333z m-2697 139 c88 -48 158 -89 155 -91 -8 -8 -105 40 -193 95 l-83
51 -1 -37 c-1 -20 -4 -155 -8 -299 -3 -144 -8 -264 -11 -266 -3 -3 -17 -3 -33
0 l-27 5 4 137 c2 75 6 186 9 246 3 61 5 140 6 178 1 39 5 67 11 67 6 0 83
-39 171 -86z m3567 -241 c-10 -2 -26 -2 -35 0 -10 3 -2 5 17 5 19 0 27 -2 18
-5z m-3979 -937 c-9 -8 -10 14 -5 89 3 55 7 264 8 465 l3 365 2 -454 c2 -330
0 -458 -8 -465z m1136 780 c18 -13 18 -17 -10 -120 -27 -103 -28 -106 -46 -90
-19 17 -18 17 1 31 24 17 26 46 4 64 -14 11 -13 14 7 29 22 18 18 44 -8 46 -7
1 -24 2 -38 3 -32 1 -34 31 -2 31 12 0 29 5 37 10 20 13 33 12 55 -4z m42
-333 c-36 -131 -68 -247 -70 -258 -3 -17 -5 -18 -11 -3 -7 15 133 512 142 503
2 -2 -26 -111 -61 -242z m-146 150 c13 -16 12 -17 -3 -4 -10 7 -18 15 -18 17
0 8 8 3 21 -13z m-3 -84 c10 -13 10 -19 -1 -28 -11 -9 -14 -5 -15 20 0 17 0
29 1 28 2 -2 8 -11 15 -20z m388 -221 c-4 -123 -10 -233 -13 -245 l-5 -22 -49
25 c-27 13 -49 30 -49 37 0 18 114 427 119 427 2 0 1 -100 -3 -222z m3471
-360 c-3 -8 -6 -5 -6 6 -1 11 2 17 5 13 3 -3 4 -12 1 -19z m0 -80 c-3 -7 -5
-2 -5 12 0 14 2 19 5 13 2 -7 2 -19 0 -25z m-3453 -477 c-8 -8 -41 44 -36 57
3 10 11 4 23 -19 9 -19 15 -36 13 -38z m366 -141 c22 -11 40 -22 40 -24 0 -5
-112 33 -119 40 -13 13 46 1 79 -16z m-161 -3 c-2 -1 -15 -11 -28 -22 l-24
-20 12 23 c6 12 19 22 28 22 9 0 14 -1 12 -3z m470 -164 c2 -1 -2 -3 -10 -3
-15 0 -206 105 -224 123 -8 8 221 -109 234 -120z m-5001 -378 c-10 -10 -202
-85 -206 -80 -5 5 29 21 133 61 59 23 83 29 73 19z m-563 -103 c-4 -5 -75 37
-75 44 0 3 18 -6 39 -18 22 -12 38 -24 36 -26z m5980 -32 c12 -19 -12 -10 -31
11 -19 22 -19 22 3 10 12 -6 25 -16 28 -21z m-32 -48 c-29 -25 -105 -73 -92
-59 9 11 114 86 119 86 3 0 -9 -12 -27 -27z m-2985 -1483 c-36 -20 -148 -58
-148 -50 0 5 33 21 73 34 77 27 103 33 75 16z"/>
<path d="M4844 9875 c-5 -11 3 -26 20 -43 l27 -27 20 24 c29 35 21 55 -24 59
-27 2 -39 -1 -43 -13z"/>
<path d="M4825 9409 c-7 -10 31 -59 46 -59 4 0 17 8 30 19 20 16 21 21 10 35
-15 18 -76 22 -86 5z"/>
<path d="M4826 8774 c-33 -33 -15 -69 37 -72 22 -1 27 2 27 21 -1 20 -31 67
-43 67 -3 0 -13 -7 -21 -16z"/>
<path d="M4787 8293 c-12 -12 -7 -24 19 -48 24 -23 27 -23 50 -8 13 8 24 22
24 29 0 23 -76 45 -93 27z"/>
<path d="M3863 4250 c0 -25 2 -35 4 -22 2 12 2 32 0 45 -2 12 -4 2 -4 -23z"/>
</g>
</svg>
