<?xml version="1.0" standalone="no"?>
<!DOCTYPE svg PUBLIC "-//W3C//DTD SVG 20010904//EN"
 "http://www.w3.org/TR/2001/REC-SVG-20010904/DTD/svg10.dtd">
<svg version="1.0" xmlns="http://www.w3.org/2000/svg"
 width="1280.000000pt" height="986.000000pt" viewBox="0 0 1280.000000 986.000000"
 preserveAspectRatio="xMidYMid meet">
<metadata>
Created by potrace 1.15, written by Peter Selinger 2001-2017
</metadata>
<g transform="translate(0.000000,986.000000) scale(0.100000,-0.100000)"
fill="#000000" stroke="none">
<path d="M6645 9849 c-835 -54 -1633 -292 -2270 -677 -676 -409 -1172 -878
-1592 -1507 -461 -690 -755 -1437 -933 -2370 -68 -359 -106 -711 -126 -1190
-3 -88 -10 -162 -13 -165 -4 -3 -4 -79 -1 -170 l7 -165 -29 -71 c-73 -181
-199 -319 -513 -564 -599 -467 -1055 -864 -1118 -973 -101 -174 -65 -351 107
-522 107 -107 228 -186 471 -305 335 -165 808 -338 1330 -485 157 -44 774
-215 1045 -290 761 -209 1245 -309 1795 -372 189 -21 663 -24 805 -5 280 39
362 63 920 270 680 252 1691 691 2136 927 l101 53 254 26 c1339 140 2452 416
3094 768 458 251 684 532 685 854 l0 70 -92 70 c-193 144 -368 344 -425 485
-42 103 -47 154 -29 268 20 128 20 131 -3 131 -17 0 -19 13 -25 153 -33 730
-117 1289 -277 1842 -259 897 -615 1586 -1138 2200 -199 233 -501 521 -740
704 -502 384 -1113 681 -1759 855 -483 131 -1127 190 -1667 155z"/>
</g>
</svg>
