<?xml version="1.0" standalone="no"?>
<!DOCTYPE svg PUBLIC "-//W3C//DTD SVG 20010904//EN"
 "http://www.w3.org/TR/2001/REC-SVG-20010904/DTD/svg10.dtd">
<svg version="1.0" xmlns="http://www.w3.org/2000/svg"
 width="785.000000pt" height="1280.000000pt" viewBox="0 0 785.000000 1280.000000"
 preserveAspectRatio="xMidYMid meet">
<metadata>
Created by potrace 1.15, written by Peter Selinger 2001-2017
</metadata>
<g transform="translate(0.000000,1280.000000) scale(0.100000,-0.100000)"
fill="#000000" stroke="none">
<path d="M3615 12793 c-152 -6 -449 -35 -615 -59 -1384 -198 -2459 -814 -2846
-1629 -52 -109 -96 -242 -126 -378 l-23 -102 0 -4225 0 -4225 23 -102 c30
-136 74 -269 126 -378 387 -815 1462 -1431 2846 -1629 333 -48 516 -60 925
-60 409 0 592 12 925 60 1384 198 2459 814 2846 1629 50 106 95 238 126 373
l23 97 3 4140 c2 2838 -1 4177 -8 4258 -37 417 -212 762 -564 1112 -239 237
-481 407 -827 580 -790 393 -1789 583 -2834 538z"/>
</g>
</svg>
