<?xml version="1.0" standalone="no"?>
<!DOCTYPE svg PUBLIC "-//W3C//DTD SVG 20010904//EN"
 "http://www.w3.org/TR/2001/REC-SVG-20010904/DTD/svg10.dtd">
<svg version="1.0" xmlns="http://www.w3.org/2000/svg"
 width="1280.000000pt" height="1280.000000pt" viewBox="0 0 1280.000000 1280.000000"
 preserveAspectRatio="xMidYMid meet">
<metadata>
Created by potrace 1.15, written by Peter Selinger 2001-2017
</metadata>
<g id="toxic" transform="translate(0.000000,1280.000000) scale(0.100000,-0.100000)"
fill="#000000" stroke="none">
<path d="M6170 11833 c-577 -24 -1154 -150 -1719 -375 -199 -78 -595 -271
-779 -378 l-122 -71 22 -38 c13 -21 466 -776 1007 -1679 l983 -1641 88 44
c241 121 411 186 549 210 284 50 659 -28 1101 -228 l55 -25 924 1675 c782
1417 922 1676 910 1688 -21 20 -195 118 -374 211 -841 436 -1755 646 -2645
607z"/>
<path d="M6340 6969 c-400 -46 -722 -328 -816 -715 -23 -92 -23 -303 -1 -400
35 -161 113 -307 227 -427 166 -176 368 -273 611 -296 366 -35 704 120 899
410 102 153 150 315 150 509 0 194 -48 355 -151 509 -155 233 -400 377 -694
411 -101 11 -119 11 -225 -1z"/>
<path d="M675 5865 c-11 -193 1 -739 19 -900 66 -560 210 -1062 445 -1550 357
-739 836 -1315 1513 -1821 278 -208 664 -451 685 -431 9 9 2085 3220 2117
3274 5 8 -41 44 -138 108 -291 191 -398 300 -504 511 -60 119 -109 270 -142
434 -29 147 -60 380 -60 458 l0 42 -1964 0 -1964 0 -7 -125z"/>
<path d="M8305 5908 c-30 -359 -99 -654 -200 -852 -109 -213 -235 -340 -527
-526 -65 -41 -118 -78 -118 -83 0 -6 2016 -3132 2105 -3265 l22 -32 144 86
c803 483 1392 1051 1815 1750 317 523 537 1109 633 1685 56 330 66 467 66 884
0 209 -4 392 -8 408 l-7 27 -1959 0 -1959 0 -7 -82z"/>
</g>
</svg>
