<?xml version="1.0" standalone="no"?>
<!DOCTYPE svg PUBLIC "-//W3C//DTD SVG 20010904//EN"
 "http://www.w3.org/TR/2001/REC-SVG-20010904/DTD/svg10.dtd">
<svg version="1.0" xmlns="http://www.w3.org/2000/svg"
 width="1280.000000pt" height="886.000000pt" viewBox="0 0 1280.000000 886.000000"
 preserveAspectRatio="xMidYMid meet">
<metadata>
Created by potrace 1.15, written by Peter Selinger 2001-2017
</metadata>
<g transform="translate(0.000000,886.000000) scale(0.100000,-0.100000)"
fill="#000000" stroke="none">
<path d="M4530 8854 c-233 -7 -601 -25 -705 -34 -60 -5 -216 -14 -346 -20
-420 -18 -559 -62 -633 -199 -27 -50 -30 -52 -60 -47 -17 3 -121 8 -231 12
-177 6 -205 5 -237 -10 -37 -18 -64 -55 -55 -78 3 -8 6 -5 6 8 1 30 42 64 86
71 37 6 37 6 32 -23 -3 -16 -9 -59 -12 -96 -4 -37 -10 -66 -15 -65 -4 1 -21
-15 -37 -35 -39 -49 -53 -35 -54 57 l-2 70 -7 -55 c-11 -90 -1 -108 78 -137
21 -7 14 -13 -67 -61 -87 -50 -92 -52 -166 -52 -81 0 -108 -9 -119 -37 -6 -14
-2 -13 14 5 40 42 50 30 50 -60 0 -75 -3 -87 -30 -127 -33 -49 -38 -45 -43 39
-3 54 -3 54 -5 -12 -2 -83 9 -93 114 -103 39 -4 76 -10 82 -14 9 -5 8 -86 -3
-326 -8 -176 -24 -527 -35 -780 -18 -421 -34 -684 -46 -742 l-4 -23 -278 0
c-286 0 -436 -9 -580 -36 -253 -47 -411 -144 -488 -299 -36 -73 -37 -76 -45
-246 -6 -99 -15 -182 -22 -195 -7 -12 -89 -105 -184 -206 -287 -307 -434 -495
-449 -576 -9 -44 13 -65 95 -89 53 -15 59 -15 113 4 l57 20 75 -41 75 -41 -45
-75 c-561 -927 -533 -2086 72 -2981 112 -167 175 -243 343 -409 445 -444 973
-701 1621 -791 58 -8 188 -13 335 -13 273 0 425 19 667 79 797 200 1473 753
1824 1493 40 85 124 295 124 311 0 23 24 19 133 -23 77 -29 119 -40 125 -34 7
7 247 8 700 3 l689 -7 47 -97 c229 -460 639 -812 1141 -979 232 -77 440 -107
694 -99 l175 5 60 -52 c438 -381 1065 -582 1637 -526 524 52 993 272 1360 639
337 337 551 760 626 1242 24 157 24 471 0 628 -150 963 -875 1699 -1832 1860
l-100 17 -3 83 -3 83 26 -6 c21 -5 25 -3 25 15 0 11 -13 33 -29 49 -22 22 -30
42 -35 87 -26 221 -102 425 -203 542 -73 86 -212 154 -368 180 -290 50 -1509
137 -2185 156 -113 3 -247 8 -298 11 l-94 6 6 176 c3 98 11 524 17 947 l11
770 -21 53 c-19 47 -21 73 -21 252 l0 200 -42 31 c-37 26 -49 30 -84 25 -84
-11 -90 -18 -98 -109 -3 -45 -6 -134 -6 -199 0 -106 -2 -122 -28 -180 l-29
-63 -12 -695 c-6 -382 -14 -811 -18 -953 l-6 -258 -128 2 -128 1 -5 42 c-3 22
-19 320 -36 661 -17 341 -35 699 -40 795 -5 96 -14 270 -20 385 -5 116 -12
244 -15 285 l-6 75 123 95 123 95 30 113 c16 62 36 117 44 121 11 7 3 24 -35
77 -133 190 -221 269 -391 351 -108 53 -131 56 -623 73 -300 11 -1504 20
-1710 14z m-1814 -771 c-4 -43 -11 -121 -16 -173 -24 -246 -33 -337 -75 -785
-25 -264 -59 -617 -75 -785 -17 -168 -30 -316 -30 -329 l0 -24 -200 5 c-111 3
-203 7 -205 9 -2 2 16 198 40 434 24 237 64 633 89 880 25 248 49 467 53 488
7 35 25 51 213 197 113 87 207 159 209 159 2 1 0 -34 -3 -76z m341 -475 c-3
-7 -5 -2 -5 12 0 14 2 19 5 13 2 -7 2 -19 0 -25z m2 -354 c5 3 19 -4 32 -15
13 -12 40 -33 59 -48 19 -14 37 -28 40 -31 3 -3 25 -21 50 -40 25 -19 47 -37
50 -40 3 -3 25 -21 50 -40 25 -19 47 -37 50 -40 3 -3 21 -17 40 -31 19 -15 46
-37 60 -49 14 -12 37 -29 52 -38 15 -9 34 -30 42 -46 21 -42 20 -23 -4 86 -12
50 -19 95 -18 100 2 5 19 -59 38 -143 l34 -153 -34 -60 c-18 -34 -72 -115
-120 -181 -218 -301 -280 -402 -280 -453 l0 -34 -82 6 c-46 4 -96 10 -112 13
l-28 5 6 102 c3 55 13 265 21 466 8 201 20 451 25 557 6 105 11 231 12 280 2
65 3 54 5 -45 2 -73 7 -130 12 -128z m1709 39 l-98 -4 2 -157 c1 -86 3 -140 5
-119 l4 38 37 -48 c20 -26 43 -55 52 -63 8 -8 35 -40 60 -70 25 -30 47 -57 50
-60 3 -3 25 -30 50 -60 25 -30 54 -64 65 -76 26 -27 60 -67 115 -134 24 -30
52 -62 60 -70 8 -8 35 -40 60 -70 25 -30 47 -57 50 -60 3 -3 25 -30 50 -60 25
-30 51 -62 60 -70 8 -8 32 -36 53 -62 21 -26 43 -53 50 -60 7 -7 32 -37 55
-65 36 -43 40 -53 25 -54 -11 0 -7 -4 12 -11 17 -6 33 -16 37 -22 11 -16 60
-76 83 -100 11 -12 40 -46 65 -76 25 -30 47 -57 50 -60 3 -3 25 -30 50 -60 25
-30 48 -57 52 -60 4 -3 9 -32 11 -65 2 -33 4 -1 3 72 -1 72 2 129 5 127 4 -2
9 -174 13 -381 3 -208 9 -418 12 -468 4 -63 3 -87 -5 -80 -5 6 -63 102 -128
215 l-118 204 -97 81 -98 80 3 115 3 115 58 125 58 124 -14 45 c-12 41 -18 46
-65 62 l-51 17 -52 -46 c-45 -42 -67 -79 -200 -342 l-149 -295 -1 126 0 126
-57 54 c-32 30 -128 100 -214 157 l-156 103 -7 367 c-3 202 -9 528 -13 725
l-6 357 104 -2 104 -2 -97 -3z m-1221 -195 c-3 -8 -6 -5 -6 6 -1 11 2 17 5 13
3 -3 4 -12 1 -19z m10 -50 c-3 -7 -5 -2 -5 12 0 14 2 19 5 13 2 -7 2 -19 0
-25z m648 -693 c11 -9 14 -13 6 -9 -9 5 -12 3 -7 -5 4 -6 12 -9 17 -6 5 4 35
-15 66 -40 71 -57 77 -62 133 -105 65 -50 68 -54 73 -86 2 -16 6 72 8 196 l4
225 5 -280 c3 -154 4 -282 3 -284 -1 -1 -40 20 -87 48 l-85 52 -61 113 c-62
117 -68 132 -48 120 7 -5 8 -3 4 5 -5 7 -11 10 -14 7 -3 -3 -15 11 -28 31 -19
32 -23 58 -27 163 l-6 125 12 -127 c10 -106 15 -130 32 -143z m1732 -548 c-1
-45 -3 -5 -3 88 0 94 2 130 3 82 2 -48 2 -125 0 -170z m320 -104 c-2 -16 -4
-3 -4 27 0 30 2 43 4 28 2 -16 2 -40 0 -55z m10 -305 c-2 -35 -3 -7 -3 62 0
69 1 97 3 63 2 -35 2 -91 0 -125z m26 -270 c5 2 21 -13 37 -33 l29 -36 37 55
c20 31 39 56 41 56 5 0 3 -4 -50 -88 -21 -34 -43 -60 -47 -57 -5 3 -12 0 -16
-6 -4 -8 -3 -9 4 -5 16 10 15 0 -4 -29 -9 -14 -21 -22 -27 -18 -6 3 -7 1 -3
-5 4 -7 3 -19 -2 -28 -11 -19 -23 165 -20 306 l2 95 5 -105 c4 -58 10 -104 14
-102z m238 -10 l24 -20 -31 17 c-17 10 -41 26 -55 37 l-24 20 31 -17 c17 -10
41 -26 55 -37z m110 -70 l24 -20 -31 17 c-17 10 -41 26 -55 37 l-24 20 31 -17
c17 -10 41 -26 55 -37z m31 -70 c-32 -54 -92 -165 -92 -170 0 -3 13 -21 28
-41 l28 -35 70 44 c85 55 104 66 104 60 0 -2 -56 -40 -124 -85 -120 -79 -125
-81 -154 -68 l-31 13 51 89 c98 173 129 225 134 225 3 0 -3 -15 -14 -32z m249
-71 c-10 -9 -11 -8 -5 6 3 10 9 15 12 12 3 -3 0 -11 -7 -18z"/>
<path d="M3601 6784 c0 -11 3 -14 6 -6 3 7 2 16 -1 19 -3 4 -6 -2 -5 -13z"/>
<path d="M4684 6740 c0 -58 1 -81 3 -52 2 28 2 76 0 105 -2 28 -3 5 -3 -53z"/>
<path d="M5520 5980 c8 -5 20 -10 25 -10 6 0 3 5 -5 10 -8 5 -19 10 -25 10 -5
0 -3 -5 5 -10z"/>
<path d="M5646 5877 c3 -10 9 -15 12 -12 3 3 0 11 -7 18 -10 9 -11 8 -5 -6z"/>
<path d="M5646 5823 c-6 -14 -5 -15 5 -6 7 7 10 15 7 18 -3 3 -9 -2 -12 -12z"/>
<path d="M6546 4753 c-6 -14 -5 -15 5 -6 7 7 10 15 7 18 -3 3 -9 -2 -12 -12z"/>
<path d="M1971 8084 c0 -11 3 -14 6 -6 3 7 2 16 -1 19 -3 4 -6 -2 -5 -13z"/>
</g>
</svg>
