<?xml version="1.0" standalone="no"?>
<!DOCTYPE svg PUBLIC "-//W3C//DTD SVG 20010904//EN"
 "http://www.w3.org/TR/2001/REC-SVG-20010904/DTD/svg10.dtd">
<svg version="1.0" xmlns="http://www.w3.org/2000/svg"
 width="1280.000000pt" height="640.000000pt" viewBox="0 0 1280.000000 640.000000"
 preserveAspectRatio="xMidYMid meet">
<metadata>
Created by potrace 1.15, written by Peter Selinger 2001-2017
</metadata>
<g transform="translate(0.000000,640.000000) scale(0.100000,-0.100000)"
fill="#000000" stroke="none">
<path d="M7450 5661 c-716 -415 -1073 -621 -1076 -619 -1 2 13 27 32 56 21 32
41 52 53 52 29 0 44 25 36 62 -26 135 -49 234 -56 242 -10 11 -139 -32 -165
-55 -29 -27 -50 -23 -62 10 -6 17 -28 41 -51 56 -36 22 -41 30 -41 64 l0 38
-82 6 c-154 12 -174 10 -198 -20 -21 -26 -22 -35 -15 -122 7 -106 13 -104 -68
-34 -30 27 -41 31 -56 24 -14 -8 -22 -6 -35 7 -14 17 -14 22 4 70 11 29 20 76
20 105 0 46 -4 57 -31 83 l-30 29 -36 -43 c-59 -72 -65 -72 -139 -2 -75 70
-56 74 -182 -40 -64 -58 -72 -69 -72 -101 0 -33 8 -44 89 -118 65 -59 96 -81
116 -81 15 0 44 -14 67 -31 31 -25 38 -37 34 -54 -5 -19 5 -33 50 -74 31 -28
60 -51 66 -51 6 0 36 23 68 50 l58 51 13 -35 c8 -22 24 -39 46 -50 18 -9 33
-20 33 -24 0 -5 -28 -35 -61 -68 -59 -56 -62 -57 -70 -36 -5 13 -21 33 -36 46
l-27 24 -44 -50 c-25 -27 -48 -48 -52 -46 -4 2 -38 31 -75 65 l-67 63 31 35
c38 44 46 74 31 120 -9 28 -16 35 -29 29 -119 -51 -122 -50 -155 51 -20 63
-32 85 -44 85 -9 0 -64 -11 -122 -23 -97 -21 -106 -25 -123 -56 l-20 -32 38
-117 37 -116 -30 -25 c-25 -22 -34 -41 -52 -122 -11 -53 -22 -108 -24 -121 -3
-29 -14 -48 -28 -48 -7 0 -8 30 -4 93 6 88 5 93 -18 119 l-25 28 -125 -7 -126
-6 0 -38 c0 -34 -5 -42 -41 -64 -23 -15 -45 -39 -51 -56 -11 -32 -50 -41 -65
-14 -10 17 -147 65 -161 56 -10 -6 -62 -236 -62 -272 0 -11 12 -22 33 -30 25
-9 48 -36 106 -126 41 -63 79 -117 86 -119 7 -3 28 4 46 15 19 12 39 21 45 21
5 0 18 -23 27 -52 19 -60 9 -83 -30 -73 -19 4 -36 -4 -75 -37 -49 -40 -51 -41
-65 -22 -28 37 -51 90 -78 177 -14 48 -28 87 -30 87 -6 0 -138 -30 -157 -36
-10 -3 -18 -1 -18 5 0 6 9 11 19 11 11 0 29 14 42 31 l21 30 -33 110 c-18 60
-36 114 -40 121 -6 10 -27 9 -95 -5 -100 -21 -97 -23 -116 66 l-12 59 -36 -6
c-20 -3 -44 -16 -57 -31 -23 -26 -53 -112 -53 -150 0 -41 -42 -60 -65 -29 -11
15 -18 15 -90 1 -42 -9 -80 -19 -83 -22 -3 -3 15 -67 40 -143 51 -155 41 -148
156 -121 40 9 56 18 62 35 19 50 150 39 150 -13 0 -32 -38 -47 -63 -25 -15 13
-26 14 -86 2 -38 -7 -75 -16 -82 -20 -8 -6 0 -42 31 -136 23 -71 47 -134 54
-141 8 -9 28 -8 86 6 63 14 75 20 78 39 2 14 10 22 22 22 10 0 25 3 33 6 11 4
16 -4 19 -31 5 -44 -19 -64 -52 -43 -17 11 -29 8 -85 -20 -36 -18 -68 -38 -71
-46 -6 -16 140 -246 156 -246 6 0 42 16 81 35 58 30 69 39 64 55 -8 26 65 65
107 56 22 -4 54 7 137 48 88 44 110 60 121 85 15 37 20 38 49 7 l22 -23 -43
-25 c-24 -14 -232 -135 -463 -268 -231 -133 -421 -244 -423 -245 -2 -2 44 -86
102 -187 99 -171 123 -203 359 -488 l252 -304 5 -101 5 -100 82 -5 83 -5 49
-60 50 -60 -65 -65 c-104 -105 -157 -200 -188 -337 -82 -365 143 -721 514
-814 158 -40 350 -12 499 73 64 37 171 135 212 195 60 87 119 232 119 293 0
18 5 21 32 18 30 -3 32 -6 44 -67 27 -132 114 -275 226 -369 280 -237 697
-209 946 63 75 82 143 211 162 308 l14 67 261 0 c144 0 296 3 338 6 l77 7 0
-47 c0 -53 -5 -52 117 -35 l82 12 17 51 c9 28 20 55 24 59 4 5 269 5 589 1
l581 -7 0 -159 0 -158 630 0 630 0 0 150 0 150 113 0 c63 0 162 -3 220 -7
l107 -6 6 -36 c46 -278 246 -493 524 -562 156 -39 342 -13 488 68 82 45 188
146 242 228 44 68 99 209 101 260 l1 30 9 -30 c4 -16 11 -55 14 -86 l6 -56 87
-18 c118 -24 259 -31 306 -15 46 15 59 41 77 165 20 132 18 501 -5 630 -24
141 -34 150 -166 150 l-100 0 0 355 1 355 79 55 80 55 0 182 0 183 -100 50
c-104 52 -115 56 -105 40 3 -5 0 -10 -7 -10 -21 0 -948 187 -953 192 -3 3 4
58 16 124 26 153 36 371 20 456 -17 88 -55 162 -96 188 -146 90 -979 116
-1836 55 -201 -14 -272 -28 -345 -70 -65 -38 -79 -66 -78 -160 1 -44 9 -108
18 -141 14 -56 16 -166 16 -1068 l0 -1006 -180 0 -180 0 -2 213 -3 212 -1550
5 -1551 5 611 352 c1714 989 1980 1144 1983 1152 2 5 -11 101 -27 213 -17 111
-60 404 -96 650 l-66 446 -156 271 c-86 149 -162 271 -167 270 -6 0 -180 -98
-386 -218z m-1991 -47 l61 -56 33 20 c18 12 43 32 56 46 14 14 28 26 33 26 17
0 7 -82 -17 -147 l-25 -66 27 -29 28 -29 -55 -48 -55 -49 -42 39 c-24 22 -53
39 -65 39 -29 0 -58 20 -137 92 -38 34 -61 63 -59 73 2 12 17 4 59 -34 47 -42
59 -48 68 -37 10 11 2 24 -39 62 -63 59 -58 71 7 15 42 -35 50 -39 62 -26 8 8
13 16 10 18 -73 56 -98 82 -90 90 6 6 27 -5 61 -33 40 -33 54 -40 63 -31 9 9
2 22 -34 56 -33 31 -43 47 -36 54 17 17 22 14 86 -45z m431 -133 c0 -31 -5
-53 -15 -61 -13 -11 -15 -5 -15 42 0 30 3 58 7 61 16 17 23 4 23 -42z m53 -8
c5 -52 3 -73 -7 -62 -8 9 -14 119 -7 119 5 0 11 -26 14 -57z m65 30 c2 -11 -4
-23 -12 -26 -12 -5 -16 1 -16 24 0 35 23 36 28 2z m80 4 c3 -14 -1 -18 -20
-15 -12 2 -24 11 -26 21 -3 14 1 18 20 15 12 -2 24 -11 26 -21z m-72 -134 c-2
-3 -15 2 -28 11 -12 9 -17 16 -9 16 9 0 11 10 7 33 -5 30 -4 29 15 -11 11 -24
18 -46 15 -49z m71 61 c3 -8 0 -27 -7 -42 -12 -25 -13 -26 -21 -7 -13 34 -10
65 6 65 9 0 18 -7 22 -16z m-826 -131 l25 -78 50 0 c27 1 61 5 77 9 38 11 36
-13 -4 -59 -22 -24 -35 -33 -42 -26 -7 7 -32 -9 -77 -49 -37 -33 -72 -60 -78
-60 -6 0 -31 23 -56 51 -37 41 -49 49 -60 40 -12 -10 -20 5 -46 83 -23 71 -29
100 -21 113 9 16 11 15 20 -10 6 -16 16 -48 22 -73 8 -32 16 -44 30 -44 24 0
24 4 -1 75 -22 63 -24 79 -12 71 5 -3 17 -30 27 -60 14 -40 24 -56 37 -56 23
0 23 8 -2 70 -19 49 -19 77 0 65 5 -3 16 -29 25 -58 21 -62 26 -69 44 -58 11
7 11 16 -3 57 -21 61 -20 74 2 74 14 0 24 -19 43 -77z m702 51 c49 -25 51 -28
30 -37 -41 -18 -122 30 -96 56 9 10 8 10 66 -19z m205 -20 c8 -2 12 -16 10
-36 -3 -29 -10 -37 -58 -61 -52 -26 -55 -30 -55 -65 0 -32 -3 -37 -25 -40 -22
-2 -23 -1 -7 8 21 13 23 40 2 40 -9 0 -32 -7 -52 -15 -20 -8 -38 -13 -41 -10
-10 10 19 32 58 44 36 11 50 28 34 44 -3 3 -19 1 -34 -5 -22 -7 -34 -6 -50 5
-18 13 -19 15 -5 21 9 3 21 4 26 0 5 -3 16 2 25 10 8 9 23 16 33 16 9 0 30 13
46 30 28 29 40 31 93 14z m-273 -34 c3 -5 2 -10 -4 -10 -5 0 -13 5 -16 10 -3
6 -2 10 4 10 5 0 13 -4 16 -10z m408 -40 c5 -21 1 -28 -22 -38 -25 -11 -61 -8
-61 5 0 3 15 22 33 42 33 38 39 36 50 -9z m-453 -15 c7 -8 8 -15 2 -15 -5 0
-15 7 -22 15 -7 8 -8 15 -2 15 5 0 15 -7 22 -15z m-10 -50 c25 -13 42 -45 24
-45 -21 0 -63 35 -64 53 0 10 7 9 40 -8z m395 -35 c-4 -6 -12 -10 -19 -10 -7
0 -19 -11 -26 -24 -17 -33 -37 -39 -50 -16 -6 11 -17 20 -25 20 -9 0 -15 10
-15 25 0 19 8 28 33 39 28 12 36 11 70 -6 21 -10 35 -23 32 -28z m-870 -100
c-3 -5 -11 -10 -16 -10 -6 0 -7 5 -4 10 3 6 11 10 16 10 6 0 7 -4 4 -10z m-60
-36 c0 -13 -6 -18 -20 -16 -28 5 -30 9 -15 27 16 20 35 14 35 -11z m115 7 c0
-13 -26 -32 -33 -24 -8 7 11 33 24 33 5 0 9 -4 9 -9z m-370 -26 c0 -7 -5 -37
-11 -66 -9 -42 -9 -53 2 -60 9 -6 18 -3 25 6 10 14 12 14 17 1 8 -21 -20 -40
-59 -42 -19 0 -34 0 -34 2 0 7 31 151 35 162 6 17 25 15 25 -3z m60 6 c0 -6
-4 -13 -10 -16 -5 -3 -10 1 -10 9 0 9 5 16 10 16 6 0 10 -4 10 -9z m560 -36
c0 -19 -9 -59 -21 -90 -18 -47 -24 -54 -42 -50 -62 14 -113 25 -119 25 -3 0
-16 -29 -28 -65 -12 -36 -27 -65 -35 -65 -20 0 -32 23 -26 47 6 21 153 163
169 163 5 0 26 18 47 39 22 22 43 37 47 35 5 -3 8 -20 8 -39z m177 15 c12 -25
69 -54 85 -44 14 9 181 5 190 -4 19 -19 -35 -70 -131 -125 l-102 -58 -80 72
c-48 43 -79 79 -79 91 0 16 11 10 57 -31 46 -41 59 -48 71 -39 12 11 5 21 -44
65 -69 62 -64 70 8 13 42 -33 53 -38 65 -28 13 10 12 14 -6 29 -66 54 -82 70
-76 79 10 16 28 7 42 -20z m-392 -9 c-3 -6 -14 -11 -23 -11 -13 0 -13 2 4 14
21 15 30 14 19 -3z m-762 -46 c-7 -19 -43 -20 -43 -1 0 8 8 16 18 19 24 5 32
-1 25 -18z m67 -5 c0 -31 -16 -41 -26 -15 -8 19 2 45 16 45 5 0 10 -13 10 -30z
m52 -27 c-2 -32 -8 -62 -14 -68 -7 -7 -9 5 -4 39 3 27 6 57 6 67 0 11 3 19 8
19 4 0 5 -26 4 -57z m68 -14 c0 -48 -12 -64 -24 -33 -3 9 -6 36 -6 61 0 39 2
44 15 33 10 -8 15 -30 15 -61z m620 58 c0 -17 -54 -69 -63 -60 -12 12 -7 23 8
17 9 -4 17 1 20 10 3 9 7 23 10 31 5 18 25 20 25 2z m685 -6 c3 -5 1 -12 -5
-16 -5 -3 -10 1 -10 9 0 18 6 21 15 7z m-1495 -70 c0 -5 -3 -23 -6 -40 -5 -25
-9 -29 -20 -20 -17 14 -18 56 -1 62 19 8 27 8 27 -2z m63 -12 c-3 -12 0 -25 7
-29 9 -6 7 -11 -10 -20 -30 -16 -34 -8 -16 34 16 39 27 48 19 15z m1023 -46
c40 -38 74 -71 74 -74 0 -4 -7 -9 -14 -12 -9 -4 -35 12 -64 38 -27 24 -60 47
-74 50 -24 6 -25 9 -15 36 6 16 13 29 15 29 2 0 37 -30 78 -67z m-581 -25 c22
1 47 -2 55 -7 12 -9 9 -15 -20 -40 -34 -28 -35 -29 -60 -11 -14 10 -38 32 -54
49 -29 30 -29 31 -11 51 l19 21 16 -33 c14 -30 19 -33 55 -30z m165 22 c0 -5
-7 -10 -15 -10 -8 0 -15 5 -15 10 0 6 7 10 15 10 8 0 15 -4 15 -10z m-516 -16
c4 -9 5 -18 4 -19 -15 -12 -71 -35 -87 -35 -38 0 -31 19 16 44 58 30 59 30 67
10z m693 -11 c-3 -16 -11 -41 -17 -57 -10 -27 -12 -28 -26 -14 -22 22 0 98 29
98 16 0 19 -5 14 -27z m-1623 -91 c19 -36 27 -37 111 -17 79 19 85 19 85 -4 0
-16 -11 -22 -60 -32 -37 -7 -60 -17 -60 -25 0 -21 12 -23 69 -12 57 10 99 4
71 -12 -8 -4 -39 -11 -67 -15 -42 -5 -53 -11 -53 -25 0 -11 -5 -22 -11 -26 -6
-3 -20 -27 -31 -51 -17 -39 -23 -44 -41 -38 -30 10 -74 11 -118 1 l-37 -8 -22
66 c-23 71 -21 86 14 86 29 0 46 18 46 50 0 42 28 131 47 152 18 20 18 20 29
-19 7 -22 19 -54 28 -71z m1693 86 c-3 -7 -14 -38 -23 -68 -21 -66 -22 -66
-34 -54 -14 14 27 134 47 134 8 0 12 -6 10 -12z m-941 -32 c8 -14 29 -28 45
-31 16 -4 31 -11 34 -16 4 -5 21 -9 38 -9 31 -1 31 -1 12 -16 -14 -10 -31 -13
-58 -8 -34 5 -38 4 -35 -11 1 -10 19 -24 40 -31 35 -12 88 -54 69 -54 -5 0
-30 9 -56 20 -56 24 -61 24 -69 5 -4 -10 2 -19 17 -25 21 -8 20 -9 -7 -9 -28
-1 -28 0 -23 37 l7 37 -60 27 c-57 25 -60 28 -60 61 0 37 8 44 62 46 19 1 33
-7 44 -23z m989 2 c-4 -13 -14 -30 -22 -38 -14 -13 -15 -13 -8 5 4 11 10 28
12 38 3 9 10 17 15 17 5 0 6 -10 3 -22z m-311 -7 c11 -17 -21 -33 -43 -22 -16
9 -21 7 -26 -9 -3 -11 -15 -20 -26 -20 -16 0 -14 5 13 30 32 29 71 39 82 21z
m-844 -61 c26 -14 25 -26 -2 -41 -16 -9 -23 -9 -26 0 -2 6 -12 11 -23 11 -22
0 -22 2 -8 55 l11 39 14 -27 c8 -14 23 -31 34 -37z m362 38 c-6 -6 -15 -8 -19
-4 -4 4 -1 11 7 16 19 12 27 3 12 -12z m533 -18 c3 -5 -1 -10 -10 -10 -9 0
-13 5 -10 10 3 6 8 10 10 10 2 0 7 -4 10 -10z m-485 -30 c-20 -13 -33 -13 -25
0 3 6 14 10 23 10 15 0 15 -2 2 -10z m593 -18 c18 -19 25 -35 21 -45 -3 -10
-1 -24 6 -32 7 -9 11 -17 9 -18 -2 -2 -25 -15 -51 -30 l-46 -27 -57 47 c-48
39 -85 86 -85 107 0 3 34 3 75 -1 64 -5 75 -3 81 11 9 22 16 20 47 -12z m-228
-48 c11 -20 41 -55 67 -77 27 -22 46 -43 43 -45 -3 -3 -15 4 -28 16 l-23 22
-51 -45 c-37 -33 -60 -45 -83 -45 -25 0 -30 3 -26 18 21 70 24 107 10 123 -13
15 -12 19 16 43 41 34 52 33 75 -10z m-648 3 c15 -15 6 -57 -13 -57 -7 0 -17
-8 -23 -17 -8 -15 -14 -12 -49 23 l-39 41 26 17 c28 18 77 14 98 -7z m273 -1
c0 -16 -18 -31 -27 -22 -8 8 5 36 17 36 5 0 10 -6 10 -14z m-755 -66 c-3 -5
-18 -10 -33 -10 -21 0 -24 2 -12 10 20 13 53 13 45 0z m15 -50 c0 -12 -41 -30
-52 -23 -14 8 -9 21 10 26 30 8 42 7 42 -3z m-100 -24 c0 -13 -47 -32 -57 -23
-7 7 27 37 43 37 8 0 14 -6 14 -14z m1280 -16 c0 -12 -40 -34 -48 -26 -3 4 3
13 14 21 22 17 34 19 34 5z m-310 -21 c0 -14 -16 -11 -29 5 -10 12 -8 13 8 9
12 -3 21 -9 21 -14z m-96 3 c3 -5 -17 -26 -44 -47 -43 -34 -48 -41 -36 -54 13
-12 21 -8 64 28 72 59 78 50 8 -13 -34 -31 -56 -58 -52 -65 12 -18 24 -13 71
30 38 36 45 39 45 21 0 -30 -127 -142 -163 -142 -18 0 -42 -14 -72 -41 -50
-46 -56 -45 -120 21 l-40 41 28 25 28 24 -20 54 -20 54 31 6 c51 10 153 7 166
-6 9 -9 16 -8 30 5 10 9 23 17 29 17 6 0 18 11 27 25 17 25 31 31 40 17z
m-841 -43 c15 -20 15 -20 97 -3 69 15 83 16 90 4 13 -21 6 -26 -60 -39 -54
-11 -72 -25 -55 -43 3 -3 34 0 68 8 38 8 66 9 71 4 15 -14 4 -20 -59 -30 -65
-11 -70 -13 -62 -33 4 -11 17 -12 63 -5 79 12 92 4 19 -12 -33 -7 -68 -17 -78
-22 -15 -8 -21 -1 -39 41 l-20 50 -38 -19 c-39 -20 -60 -58 -60 -107 0 -25 -5
-28 -56 -37 -30 -5 -31 -4 -52 63 -12 37 -22 70 -22 73 0 3 17 8 39 12 37 6
39 7 45 55 7 52 13 57 68 60 17 1 32 -7 41 -20z m1017 -45 c0 -19 -4 -34 -10
-34 -5 0 -10 18 -10 41 0 24 4 38 10 34 6 -3 10 -22 10 -41z m57 20 c3 -8 1
-20 -4 -25 -7 -7 -12 -2 -15 15 -6 28 9 36 19 10z m-117 -79 c0 -8 -4 -15 -10
-15 -5 0 -10 7 -10 15 0 8 5 15 10 15 6 0 10 -7 10 -15z m-60 -34 c0 -5 -12
-17 -27 -26 l-28 -18 24 27 c26 28 31 31 31 17z m-875 -21 c4 -11 17 -33 31
-49 l24 -29 -29 -7 c-17 -3 -39 -1 -51 5 -19 10 -21 17 -15 48 11 57 28 71 40
32z m705 -85 c0 -2 -10 -10 -22 -16 -21 -11 -22 -11 -9 4 13 16 31 23 31 12z
m-420 -24 c0 -5 -25 -19 -55 -31 -51 -21 -68 -41 -46 -54 5 -3 34 6 66 20 80
37 81 22 1 -18 -36 -18 -66 -36 -66 -40 0 -21 33 -17 90 12 53 27 61 29 58 13
-2 -11 -38 -36 -93 -65 -71 -38 -97 -47 -122 -43 -23 4 -47 -2 -82 -20 -28
-14 -52 -25 -54 -25 -7 0 -77 109 -77 120 0 5 14 17 31 26 28 14 31 19 27 55
-3 37 -2 40 19 34 13 -3 53 1 89 10 75 17 96 19 74 5 -12 -7 -12 -12 -3 -21
10 -10 25 -7 70 13 56 24 73 26 73 9z m7853 -2256 l6 -60 -20 48 c-15 39 -18
60 -12 100 l7 52 7 -40 c3 -22 9 -67 12 -100z m-1335 -41 c21 -33 23 -43 15
-93 -7 -47 -11 -56 -28 -56 -18 0 -20 8 -23 93 -1 50 1 92 5 92 4 0 19 -17 31
-36z m-5108 21 c0 -3 -7 -31 -15 -63 -8 -31 -17 -70 -20 -85 -5 -23 -10 -28
-31 -25 -24 3 -28 11 -48 91 l-22 87 68 0 c37 0 68 -2 68 -5z m3410 -75 l0
-80 -607 0 -608 0 -28 40 -28 40 -80 0 -79 0 0 -35 0 -35 -54 0 c-29 0 -70 -7
-89 -15 -29 -12 -86 -15 -277 -15 l-240 0 0 23 c0 22 -21 106 -35 140 -7 16
48 17 1059 17 l1066 0 0 -80z"/>
<path d="M2894 4253 l-51 -4 -7 -86 c-3 -47 -9 -90 -13 -95 -3 -6 -34 -8 -74
-6 l-69 5 0 -43 c0 -56 32 -94 116 -135 52 -26 64 -36 64 -55 0 -14 -6 -24
-15 -24 -24 0 -35 -35 -35 -109 l0 -71 47 0 46 0 -40 -29 c-21 -16 -54 -47
-71 -69 -51 -64 -65 -52 -91 76 -18 91 -25 110 -48 130 -33 26 -40 25 -183
-23 l-98 -33 -50 44 c-28 24 -53 44 -57 44 -4 0 -34 -25 -67 -55 -32 -30 -65
-55 -73 -55 -7 0 -33 22 -58 49 l-44 50 -31 -29 c-27 -24 -32 -36 -32 -75 0
-25 9 -73 20 -106 24 -69 15 -95 -27 -84 -19 4 -36 -4 -77 -40 -29 -25 -56
-45 -60 -45 -3 0 -6 9 -6 20 0 36 -30 34 -162 -9 -144 -48 -138 -41 -114 -143
7 -32 12 -59 10 -60 -1 -2 -35 -1 -76 2 l-73 5 0 72 0 72 -33 6 c-52 10 -90
-19 -135 -103 -41 -77 -69 -93 -95 -52 -11 17 -23 20 -94 20 l-81 0 7 -142 c3
-78 10 -145 14 -149 4 -4 42 -10 85 -13 74 -7 79 -6 84 14 8 30 76 28 122 -4
31 -21 51 -24 151 -29 110 -5 116 -4 143 18 15 13 27 30 28 37 1 19 16 -30 29
-93 8 -42 18 -61 39 -77 l28 -21 114 36 c63 19 117 38 122 42 4 4 1 40 -8 80
-8 40 -15 79 -15 86 0 19 33 36 89 44 45 6 46 7 43 41 -6 61 -63 98 -179 116
-33 5 -42 11 -46 31 -3 15 1 27 9 30 8 3 14 20 14 40 l0 35 71 -63 c38 -35 83
-75 100 -88 l29 -24 58 51 c44 38 57 56 55 76 -2 34 56 86 97 86 16 0 31 4 35
10 3 5 21 -2 41 -15 19 -13 61 -29 92 -36 94 -20 113 -40 76 -80 -12 -14 -13
-24 -5 -54 13 -49 -9 -81 -61 -89 -36 -6 -38 -8 -38 -46 0 -29 -5 -42 -20 -50
-16 -8 -20 -8 -20 4 0 20 -23 26 -106 26 l-74 0 0 -36 c0 -35 -1 -36 -27 -29
-76 21 -74 23 -105 -125 -16 -74 -26 -140 -24 -146 3 -7 18 -15 35 -19 17 -4
31 -9 31 -12 0 -3 -18 -23 -40 -45 l-40 -40 -31 26 c-38 32 -95 34 -176 6 -51
-18 -58 -18 -73 -5 -11 10 -15 25 -13 40 4 19 -7 36 -48 80 -29 30 -56 54 -61
53 -17 -6 -188 -204 -188 -218 1 -8 23 -39 50 -68 36 -38 55 -52 68 -48 26 8
79 -50 87 -96 4 -20 19 -48 36 -64 16 -15 29 -31 29 -36 0 -17 -40 -7 -64 17
-32 32 -98 34 -181 5 -67 -23 -91 -15 -80 28 4 18 0 31 -16 48 -30 32 -18 40
32 20 47 -19 54 -15 65 40 8 43 -14 82 -80 141 -44 39 -54 53 -49 71 3 13 13
22 25 22 12 0 24 12 33 34 21 49 40 124 34 131 -10 9 -249 56 -271 53 -16 -2
-27 -19 -45 -72 -25 -75 -34 -86 -75 -86 -28 0 -39 21 -53 103 -6 37 -7 38
-38 32 -60 -13 -91 -57 -111 -159 -11 -55 -15 -61 -39 -64 -15 -2 -27 1 -27 7
0 5 -9 13 -20 16 -19 6 -19 8 -5 28 8 12 31 34 49 48 l34 25 -24 32 c-23 29
-31 32 -78 32 -29 0 -79 -9 -111 -20 -67 -23 -90 -15 -80 29 5 22 -4 37 -46
84 -28 32 -57 57 -63 55 -13 -3 -196 -202 -196 -213 0 -4 23 -34 52 -66 40
-46 57 -59 72 -55 31 8 86 -49 86 -89 0 -24 17 -49 81 -120 53 -59 90 -91 106
-93 21 -3 156 19 206 34 9 3 17 14 17 24 0 14 12 21 47 28 65 14 87 2 79 -44
-5 -22 -1 -44 9 -63 12 -24 23 -31 61 -37 34 -5 44 -10 40 -21 -4 -9 14 -39
45 -75 42 -48 56 -58 75 -54 29 8 84 -52 84 -92 0 -18 15 -45 45 -79 l46 -52
-17 -71 c-19 -86 -18 -88 76 -119 60 -20 66 -20 77 -5 11 15 17 15 58 3 31 -9
52 -23 63 -41 8 -15 26 -29 39 -32 19 -5 22 -11 16 -36 -9 -46 13 -88 50 -95
58 -12 65 -15 61 -33 -6 -26 102 -138 119 -123 20 16 90 -58 85 -90 -3 -21 -6
-18 -27 24 -14 26 -31 47 -38 47 -7 0 -45 -21 -83 -46 -67 -45 -70 -46 -102
-33 -19 8 -63 13 -100 13 -38 -1 -68 1 -68 4 0 2 18 24 40 48 22 24 40 47 40
52 0 5 -25 37 -56 71 -50 55 -56 65 -46 85 6 13 29 37 51 52 22 16 41 32 41
35 0 4 -16 21 -35 38 -43 37 -65 38 -162 10 -82 -25 -108 -17 -97 27 5 20 -3
35 -42 77 -27 28 -55 54 -62 55 -8 2 -37 -23 -67 -55 -51 -57 -54 -59 -96 -55
-40 4 -58 15 -59 35 0 4 19 7 43 7 66 0 87 28 86 111 -1 35 -4 91 -8 124 l-6
60 -90 5 -90 5 -1 73 c-1 60 -5 76 -20 86 -18 13 -250 66 -286 66 -11 0 -23
-20 -38 -64 -17 -52 -28 -69 -60 -90 l-38 -25 5 -78 c5 -68 2 -91 -25 -176
-27 -89 -29 -102 -17 -130 10 -25 22 -34 56 -42 28 -7 43 -17 45 -28 1 -10 24
-43 50 -73 36 -43 52 -54 68 -50 31 8 86 -49 86 -89 0 -18 3 -35 8 -39 4 -4
14 -35 22 -69 12 -48 19 -62 33 -61 11 1 19 -7 23 -25 3 -14 8 -34 11 -44 2
-9 -1 -33 -7 -53 -10 -31 -9 -54 11 -151 22 -106 26 -116 54 -133 l31 -19 109
34 c60 19 115 37 121 39 9 3 7 27 -7 87 -11 46 -18 88 -15 94 5 13 73 35 110
35 19 0 26 5 26 19 0 37 19 32 41 -11 13 -26 22 -58 20 -80 -1 -27 12 -64 49
-138 43 -86 56 -104 85 -116 35 -14 35 -14 140 53 58 38 105 73 105 78 0 6
-18 43 -39 82 -33 63 -36 74 -24 85 17 13 22 8 55 -51 11 -20 22 -29 32 -25
21 8 57 -67 55 -114 -2 -28 10 -61 52 -140 46 -87 59 -104 87 -113 29 -10 38
-7 81 20 26 17 51 31 55 31 4 0 20 -9 35 -21 l28 -21 119 37 c66 20 120 38
122 40 1 1 -6 41 -16 89 -13 61 -16 89 -8 95 20 16 88 30 116 24 25 -5 29 -11
35 -55 4 -30 3 -60 -4 -76 -18 -42 29 -249 61 -274 31 -24 35 -23 165 17 104
33 113 37 108 58 -2 12 -11 51 -19 87 -18 78 -14 84 74 101 l57 11 -7 34 c-5
19 -14 42 -22 51 -18 23 -84 50 -140 58 -27 4 -48 10 -48 13 0 2 20 28 44 56
l44 52 -19 26 c-18 25 -18 27 -1 47 l17 22 30 -31 c17 -17 35 -48 40 -70 7
-25 36 -67 85 -123 65 -74 80 -85 113 -89 37 -4 40 -1 122 91 l84 94 -60 68
c-69 78 -69 82 3 143 l43 36 -33 30 c-40 37 -91 40 -177 10 -69 -24 -86 -15
-90 42 l-2 34 76 -19 c66 -18 76 -19 85 -5 8 14 14 14 57 0 29 -9 52 -24 60
-38 9 -18 41 -33 129 -62 116 -39 117 -39 150 -22 33 17 35 21 61 140 l26 122
-21 8 c-12 4 -50 16 -84 25 -35 10 -66 24 -69 31 -3 8 3 38 12 68 16 52 18 54
54 55 20 1 80 11 134 24 87 20 100 25 116 52 19 30 19 31 -16 140 -19 61 -38
114 -43 118 -4 5 -43 2 -85 -7 -42 -9 -81 -16 -87 -16 -14 0 -38 65 -38 106
l0 36 -37 -7 c-65 -12 -98 -61 -119 -178 -3 -20 -11 -40 -17 -44 -6 -4 -8 0
-4 9 4 13 -24 116 -68 245 -3 8 -26 6 -87 -8 l-83 -19 -17 21 c-24 29 -23 36
10 42 15 3 54 30 88 61 l61 55 56 -13 c66 -16 67 -15 93 66 l18 58 98 30 c61
19 98 36 98 44 0 8 -7 49 -16 91 -18 90 -20 88 66 106 30 7 57 14 59 15 4 3
-37 179 -50 211 -5 14 -14 20 -23 17 -10 -4 -17 9 -26 44 -9 41 -9 55 3 79 12
25 11 40 -12 146 -24 108 -28 120 -57 137 l-30 20 -110 -36 c-60 -20 -113 -40
-117 -44 -5 -4 -1 -45 8 -90 26 -129 22 -129 -132 12 l-43 38 16 66 c8 37 14
68 12 69 -2 2 -40 15 -85 30 -81 26 -83 27 -83 58 0 18 9 51 20 75 l19 43 -32
6 c-31 7 -31 7 -7 14 14 4 48 7 77 8 28 1 55 6 58 11 4 6 9 45 12 86 6 70 5
75 -15 81 -19 4 -20 10 -15 57 3 28 14 60 23 71 14 16 19 47 25 143 7 120 6
125 -16 148 -20 22 -30 24 -98 22 -42 -1 -99 -3 -127 -5z m19 -108 c-6 -62 -5
-65 16 -65 19 0 21 6 21 49 0 27 3 56 6 65 8 22 33 20 29 -1 -2 -10 -6 -39 -9
-65 -5 -42 -3 -48 13 -48 19 0 31 39 31 103 0 15 4 27 8 27 5 0 7 -34 4 -76
-4 -70 -3 -76 14 -72 16 3 19 14 22 76 2 52 6 72 15 69 8 -3 12 -35 10 -112
-1 -92 -4 -112 -22 -136 -15 -20 -21 -43 -21 -83 l0 -54 -71 -7 c-38 -4 -73
-4 -77 -1 -3 4 -5 22 -3 41 2 33 0 36 -55 60 -69 31 -124 71 -124 91 0 10 13
14 49 14 27 0 61 4 75 10 24 9 26 14 26 72 0 82 8 108 31 108 16 0 18 -6 12
-65z m-634 -439 c9 -10 2 -22 -34 -55 -25 -23 -45 -46 -45 -51 0 -25 25 -17
67 19 42 38 73 52 73 33 0 -4 -22 -25 -50 -47 -43 -34 -48 -41 -36 -54 13 -12
22 -8 66 29 28 23 53 40 56 37 3 -3 -20 -26 -50 -53 -31 -26 -56 -51 -56 -55
0 -4 8 -10 17 -13 11 -5 31 8 65 41 38 37 48 43 48 28 0 -31 -69 -95 -103 -95
-21 0 -28 -4 -25 -17 4 -28 -11 -43 -43 -43 -21 0 -43 -12 -74 -41 l-44 -41
-38 30 c-21 16 -47 40 -58 52 l-20 22 28 24 28 24 -25 74 c-25 72 -33 126 -20
139 4 4 29 -14 56 -38 28 -25 56 -45 64 -45 7 0 39 25 71 55 32 30 61 54 64
55 4 0 12 -6 18 -14z m359 -8 c9 -12 32 -104 32 -128 0 -5 -7 -7 -14 -4 -8 3
-20 31 -27 62 -6 31 -14 62 -16 69 -7 17 11 17 25 1z m-54 -35 c4 -21 9 -46
12 -55 3 -10 1 -18 -5 -18 -5 0 -13 17 -16 38 -4 20 -9 45 -12 55 -2 9 0 17 5
17 5 0 13 -17 16 -37z m-49 -32 c4 -34 0 -83 -16 -161 l-22 -112 -48 6 c-52 7
-114 30 -124 46 -3 5 7 15 22 21 15 6 46 19 68 30 l41 20 -4 66 c-3 38 -11 73
-18 81 -17 16 -8 34 14 30 11 -2 20 -21 27 -58 8 -41 15 -56 29 -58 20 -4 20
7 0 106 -5 25 -3 32 9 32 11 0 17 -15 22 -49z m410 -58 c-13 -32 -22 -92 -18
-117 4 -20 17 -27 84 -47 61 -18 79 -27 79 -41 0 -22 -25 -23 -73 -3 -48 20
-69 19 -65 -1 2 -10 26 -25 61 -37 32 -12 57 -27 57 -35 0 -14 -16 -11 -79 14
-42 18 -48 17 -55 -1 -4 -10 5 -20 27 -30 l32 -15 -41 5 c-36 4 -42 2 -47 -17
-5 -17 -9 -19 -21 -9 -10 8 -16 9 -21 1 -18 -30 -63 3 -101 75 -5 11 -18 19
-27 19 -11 -1 -19 12 -26 47 -15 67 -8 80 38 73 34 -5 38 -3 71 41 52 70 146
128 125 78z m-260 -243 c3 -5 1 -10 -4 -10 -6 0 -11 5 -11 10 0 6 2 10 4 10 3
0 8 -4 11 -10z m849 -18 c3 -10 14 -57 25 -106 17 -80 18 -93 5 -118 -12 -22
-12 -36 -3 -73 15 -59 8 -72 -41 -85 -47 -13 -63 -7 -35 13 17 13 17 17 1 90
-10 42 -21 79 -26 82 -4 3 -38 -4 -75 -16 -66 -20 -95 -20 -57 0 19 10 19 12
1 92 -18 85 -18 99 6 99 16 0 21 -13 30 -74 8 -50 14 -59 34 -47 11 7 11 19 2
60 -14 68 -14 81 3 81 9 0 16 -19 21 -57 8 -69 11 -74 31 -66 16 6 14 48 -3
122 -4 15 -2 22 4 18 6 -4 16 -36 23 -72 13 -69 18 -78 38 -66 13 7 11 21 -13
128 -4 17 -2 21 9 17 9 -3 17 -13 20 -22z m-2188 -67 c5 -88 11 -94 107 -97
69 -3 82 -6 85 -20 3 -16 -5 -18 -68 -18 -68 0 -70 -1 -60 -20 9 -17 21 -20
70 -20 49 0 60 -3 60 -16 0 -14 -9 -15 -65 -9 -61 6 -65 5 -65 -14 0 -17 7
-21 38 -22 20 -1 51 -5 67 -9 22 -6 9 -8 -47 -9 -59 -1 -78 -4 -78 -15 0 -18
31 -26 99 -26 47 0 52 -2 41 -15 -18 -22 -204 -10 -240 16 -14 9 -49 20 -79
23 -29 3 -55 7 -57 8 -1 2 -6 36 -9 76 l-8 72 42 0 c41 0 43 1 66 54 24 54 83
131 93 121 3 -3 7 -30 8 -60z m1710 -6 c3 -5 1 -9 -5 -9 -17 0 -41 12 -41 20
0 10 38 1 46 -11z m-1281 -38 l6 -38 73 -12 c71 -12 136 -41 136 -61 0 -5 -10
-10 -22 -10 -26 0 -102 -33 -111 -47 -3 -5 2 -46 12 -90 16 -71 17 -83 4 -87
-23 -9 -31 1 -38 52 -8 59 -16 74 -35 62 -11 -7 -12 -19 -3 -67 6 -34 7 -62 2
-67 -13 -15 -19 -3 -26 52 -7 63 -17 82 -35 64 -9 -9 -9 -27 -2 -72 6 -34 7
-63 3 -66 -4 -2 -13 28 -20 66 -13 72 -23 90 -41 72 -7 -7 -5 -33 5 -81 13
-65 13 -70 -3 -61 -11 6 -23 42 -38 110 -19 90 -20 104 -8 129 12 23 12 36 1
85 -10 43 -11 58 -2 62 46 16 123 43 129 43 3 1 9 -16 13 -38z m1321 -59 c-25
-24 -46 -47 -46 -52 0 -25 25 -17 67 19 47 42 58 47 67 32 3 -5 -17 -26 -44
-47 -44 -34 -48 -40 -35 -53 13 -13 17 -13 33 2 21 19 32 22 32 8 0 -5 -11
-16 -25 -25 -20 -13 -32 -14 -74 -4 -56 13 -77 41 -47 63 9 7 16 21 16 32 0
11 11 25 25 31 14 6 25 18 25 25 0 24 22 38 38 25 12 -10 6 -19 -32 -56z
m-1497 -74 c-16 -30 -19 -21 -18 50 l1 67 13 -49 c10 -34 11 -55 4 -68z m1135
30 c3 -24 9 -53 12 -66 6 -22 4 -23 -27 -20 -28 2 -35 7 -37 29 -2 15 -12 35
-23 45 -26 24 -24 32 14 43 51 15 54 13 61 -31z m-212 -59 c-5 -29 -8 -33 -20
-25 -13 8 -2 58 12 53 6 -2 9 -15 8 -28z m421 -37 c-22 -21 -45 -52 -52 -70
-14 -34 -25 -40 -37 -20 -4 6 4 21 21 34 26 20 27 24 16 55 -6 18 -10 34 -8
35 1 2 21 9 42 16 33 12 41 12 48 0 6 -9 -4 -25 -30 -50z m-305 35 c2 -10 -3
-17 -12 -17 -10 0 -16 9 -16 21 0 24 23 21 28 -4z m212 -55 c0 -7 -4 -10 -10
-7 -5 3 -10 16 -10 28 0 18 2 19 10 7 5 -8 10 -21 10 -28z m-50 -8 c0 -8 -4
-12 -10 -9 -5 3 -10 13 -10 21 0 8 5 12 10 9 6 -3 10 -13 10 -21z m-355 -42
c-6 -26 -7 -26 -20 -8 -12 16 -11 22 3 44 14 22 17 23 20 8 2 -10 1 -30 -3
-44z m74 36 c-2 -13 0 -28 4 -35 4 -7 -1 -14 -14 -18 -28 -9 -29 -6 -12 38 17
42 26 48 22 15z m47 -26 c-12 -11 -18 7 -10 30 l8 23 4 -23 c2 -13 1 -26 -2
-30z m446 -13 c3 -55 1 -62 -24 -86 -26 -25 -28 -25 -53 -9 -30 20 -31 26 -5
77 22 42 54 79 69 79 5 0 11 -27 13 -61z m-372 29 c0 -12 -1 -19 -3 -17 -1 2
-9 12 -16 22 -12 14 -11 17 3 17 10 0 16 -8 16 -22z m98 -4 c3 -18 -1 -20 -28
-16 -22 3 -30 10 -30 24 0 28 54 21 58 -8z m400 5 l23 -9 -29 -25 c-17 -14
-42 -25 -56 -25 -24 0 -26 4 -26 41 l0 41 33 -7 c17 -4 42 -11 55 -16z m-525
-62 c8 -22 -72 -57 -103 -45 -25 9 -24 10 20 33 52 28 76 31 83 12z m757 -7
c0 -5 -9 -32 -20 -60 -11 -28 -20 -52 -20 -54 0 -11 34 -15 40 -5 4 6 10 -5
14 -25 6 -29 11 -36 31 -36 22 0 23 -2 12 -35 -6 -19 -16 -35 -23 -35 -7 0
-15 -6 -18 -12 -5 -10 -7 -10 -12 0 -3 6 -14 12 -25 12 -17 0 -19 -5 -13 -35
10 -56 9 -95 -4 -95 -14 0 -49 197 -39 216 6 10 14 37 18 60 11 56 35 114 48
114 6 0 11 -4 11 -10z m-942 -34 c10 -14 31 -28 45 -31 14 -4 31 -13 37 -20 6
-7 19 -11 29 -8 10 3 22 0 25 -6 4 -6 1 -11 -8 -11 -8 0 -16 -6 -18 -12 -3 -9
-13 -7 -34 7 -17 12 -53 22 -89 25 -57 5 -60 6 -63 34 -6 49 43 63 76 22z
m837 -62 c4 -26 2 -44 -4 -49 -7 -4 -11 3 -11 18 0 14 -3 40 -6 58 -5 23 -3
31 4 24 5 -5 13 -29 17 -51z m-645 36 c0 -5 -5 -10 -11 -10 -5 0 -7 5 -4 10 3
6 8 10 11 10 2 0 4 -4 4 -10z m423 -10 c-10 -11 -24 -20 -32 -20 -11 0 -10 4
4 20 10 11 24 20 31 20 10 0 9 -5 -3 -20z m123 10 c26 0 32 -3 28 -15 -11 -27
-94 -16 -94 12 0 10 6 13 16 9 9 -3 31 -6 50 -6z m-2262 -42 c3 -7 7 -24 10
-38 3 -14 14 -39 25 -56 l19 -32 61 13 c34 7 61 11 61 8 0 -17 -24 -43 -40
-43 -27 0 -36 -21 -16 -36 17 -12 16 -13 -2 -23 -12 -7 -29 -37 -42 -76 -12
-36 -24 -65 -26 -65 -3 0 -13 4 -23 9 -12 7 -37 5 -75 -3 -53 -13 -57 -12 -67
5 -6 13 -6 25 3 38 11 18 9 24 -17 51 -16 16 -27 32 -24 34 2 2 20 8 39 13 33
9 34 11 46 79 18 96 56 163 68 122z m-328 -43 c63 24 133 33 147 19 3 -4 -5
-15 -18 -26 -14 -11 -37 -39 -51 -63 -20 -35 -33 -46 -60 -51 -19 -3 -36 -9
-38 -13 -6 -9 13 -88 30 -129 20 -48 17 -50 -14 -12 -17 20 -33 30 -40 26 -20
-12 -14 -25 35 -77 43 -46 51 -68 20 -56 -7 3 -43 39 -80 80 -46 51 -67 82
-67 100 0 16 -16 44 -40 72 -22 25 -40 49 -40 52 0 3 21 29 48 58 l47 54 27
-30 28 -29 66 25z m3054 23 c-124 -50 -121 -46 -95 -153 18 -75 19 -72 -4 -78
-17 -4 -21 3 -30 45 -6 27 -11 56 -11 63 0 8 -6 15 -14 15 -11 0 -12 7 -3 35
9 31 17 37 81 59 70 24 125 35 76 14z m-1148 -29 c14 -11 34 -19 45 -19 10 0
24 -9 31 -20 7 -11 10 -20 7 -20 -2 0 -27 9 -55 20 -64 25 -63 25 -58 -5 3
-13 1 -22 -3 -19 -5 3 -9 21 -9 40 0 23 -5 34 -14 34 -8 0 -18 5 -21 10 -10
16 45 0 77 -21z m598 10 c0 -6 -4 -7 -10 -4 -5 3 -10 11 -10 16 0 6 5 7 10 4
6 -3 10 -11 10 -16z m123 -14 c-2 -5 -7 -10 -13 -9 -5 1 -23 2 -40 3 -17 0
-30 7 -30 14 0 10 11 12 43 8 23 -3 41 -10 40 -16z m-194 -48 c1 -19 -3 -27
-11 -25 -15 5 -23 52 -13 76 6 15 8 15 15 -3 5 -11 9 -33 9 -48z m-628 33 c34
-19 22 -32 -21 -25 -24 4 -46 3 -53 -3 -8 -7 -18 -7 -27 -1 -13 8 -12 12 4 24
23 17 69 20 97 5z m442 -40 c3 -11 1 -20 -4 -20 -5 0 -9 9 -9 20 0 11 2 20 4
20 2 0 6 -9 9 -20z m-1696 -22 c-16 -10 -21 -2 -13 19 6 15 9 15 16 3 6 -9 5
-17 -3 -22z m1823 1 c0 -11 -4 -17 -10 -14 -5 3 -10 15 -10 26 0 11 5 17 10
14 6 -3 10 -15 10 -26z m255 21 c4 -6 -8 -10 -29 -10 -19 0 -38 5 -41 10 -4 6
8 10 29 10 19 0 38 -4 41 -10z m-1963 -15 c25 -5 26 -8 18 -31 -17 -43 -11
-58 46 -102 49 -39 92 -97 81 -109 -3 -2 -38 3 -78 11 -72 15 -74 15 -97 -7
-14 -13 -33 -21 -46 -19 -20 3 -25 -4 -36 -42 -7 -25 -21 -53 -31 -62 -24 -22
-24 -13 3 63 21 57 24 61 58 67 29 4 41 13 55 40 19 35 19 36 -4 108 -13 40
-26 78 -28 85 -3 7 3 10 14 8 10 -2 30 -6 45 -10z m1874 -40 c10 -8 14 -15 9
-15 -6 0 -16 5 -22 11 -8 8 -13 8 -17 0 -4 -6 -22 -11 -39 -10 l-32 1 30 13
c39 18 47 18 71 0z m159 -55 l13 -61 -32 7 c-39 8 -66 22 -66 33 0 5 14 21 30
34 17 14 30 33 30 43 0 33 12 5 25 -56z m-1165 39 c0 -6 -4 -7 -10 -4 -5 3
-10 11 -10 16 0 6 5 7 10 4 6 -3 10 -11 10 -16z m-955 0 c9 -13 7 -15 -32 -22
-25 -5 -33 -3 -33 8 0 21 54 33 65 14z m1689 3 c6 -10 -40 -46 -70 -56 -14 -4
-26 0 -39 14 -18 20 -18 20 28 20 35 0 47 4 47 15 0 16 25 21 34 7z m621 -38
c4 -28 3 -50 -4 -57 -12 -12 -16 -3 -25 54 -6 34 -1 49 15 49 3 0 10 -21 14
-46z m-1775 1 l26 -25 72 25 c106 37 168 31 120 -11 -11 -11 -34 -39 -50 -63
-15 -25 -28 -40 -28 -34 0 16 -67 -1 -90 -22 -16 -15 -36 -59 -57 -125 -7 -23
-43 26 -43 59 0 16 -16 44 -39 71 l-39 44 46 53 c25 29 48 53 51 53 3 0 17
-11 31 -25z m1340 -1 c3 -3 -8 -17 -25 -30 -21 -17 -37 -23 -55 -18 -25 5 -70
41 -70 55 0 8 141 1 150 -7z m79 -17 c8 -10 4 -20 -19 -42 -25 -24 -32 -26
-45 -15 -14 12 -13 16 11 42 31 32 37 33 53 15z m300 -44 c1 -7 -3 -13 -9 -13
-5 0 -10 17 -9 38 1 33 2 34 9 12 4 -14 8 -31 9 -37z m-2239 38 c0 -5 -30 -14
-66 -21 -59 -11 -87 -30 -71 -46 3 -3 37 1 76 9 39 8 71 12 71 8 -1 -22 -40
-38 -115 -46 -11 -1 -28 -6 -38 -10 -27 -11 -29 -3 -12 47 l16 45 67 10 c37 5
68 11 70 11 1 1 2 -2 2 -7z m1525 -10 c3 -5 -12 -23 -32 -40 -39 -32 -53 -38
-53 -21 0 6 7 10 15 10 8 0 21 14 30 30 16 30 29 38 40 21z m-1 -86 c-47 -42
-69 -55 -62 -36 5 14 101 91 107 85 3 -2 -17 -24 -45 -49z m-496 17 c2 -7 -3
-12 -10 -12 -15 0 -38 19 -38 32 0 11 43 -7 48 -20z m272 6 c0 -7 -4 -19 -9
-27 -8 -12 -12 -12 -25 -2 -21 17 -20 28 2 34 29 8 32 7 32 -5z m100 -14 c0
-8 10 -38 22 -66 21 -49 22 -50 56 -44 l35 5 -28 -29 c-16 -17 -29 -29 -30
-27 -1 1 -25 28 -54 59 -52 56 -53 59 -41 88 13 31 40 41 40 14z m-421 -31
c20 -24 24 -25 57 -15 36 11 36 11 17 -10 -10 -11 -25 -40 -34 -66 l-15 -45
-23 37 -23 37 -34 -21 -35 -20 -8 23 c-7 17 -1 30 28 64 20 23 39 42 43 43 4
0 16 -12 27 -27z m915 -23 c-6 -35 -4 -40 13 -40 12 0 26 -6 32 -14 6 -8 22
-11 37 -8 34 6 29 -5 -22 -51 -47 -42 -84 -49 -84 -16 0 20 -4 21 -40 15 -31
-5 -40 -3 -40 8 0 8 12 21 27 28 16 8 31 28 40 52 12 36 30 66 39 66 2 0 1
-18 -2 -40z m-719 20 c3 -5 -6 -12 -20 -16 -29 -7 -41 -1 -30 15 8 14 42 14
50 1z m-1286 -74 c-12 -31 -24 -54 -27 -51 -6 6 18 85 31 103 19 25 17 4 -4
-52z m1396 53 c10 -15 -4 -99 -16 -99 -6 0 -7 5 -4 10 4 6 1 26 -5 45 -11 34
-7 55 10 55 5 0 12 -5 15 -11z m260 1 c-3 -5 -11 -10 -16 -10 -6 0 -7 5 -4 10
3 6 11 10 16 10 6 0 7 -4 4 -10z m-1707 -42 c-15 -45 -25 -54 -33 -29 -7 24
10 61 30 61 11 0 12 -6 3 -32z m766 7 c4 -14 4 -30 1 -35 -3 -5 -1 -11 5 -15
5 -3 10 -13 10 -21 0 -12 -7 -10 -28 8 -26 21 -28 26 -19 56 12 39 23 41 31 7z
m546 -4 c0 -5 -12 -12 -27 -15 -16 -4 -36 -9 -45 -12 -10 -3 -18 -1 -18 5 0 5
19 14 43 19 23 6 43 10 45 11 1 1 2 -3 2 -8z m480 -16 c0 -8 -7 -15 -15 -15
-9 0 -12 6 -9 15 4 8 10 15 15 15 5 0 9 -7 9 -15z m-255 -25 l29 -30 -24 -18
c-25 -17 -80 -24 -80 -10 0 4 4 8 9 8 5 0 12 18 16 40 4 22 10 40 14 40 4 0
20 -14 36 -30z m379 -7 c-4 -16 -8 -41 -9 -58 -4 -57 -4 -58 -18 -46 -8 6 -19
29 -26 51 -14 48 1 80 37 80 22 0 23 -3 16 -27z m-684 -2 c0 -5 -7 -14 -15
-21 -16 -14 -18 -10 -9 14 6 17 24 22 24 7z m-117 -24 c5 -14 -16 -19 -43 -11
-13 5 -13 6 0 14 21 14 37 12 43 -3z m558 -34 c-9 -7 -25 -13 -35 -13 -18 0
-18 2 3 24 18 19 26 22 36 13 10 -9 9 -14 -4 -24z m-917 -7 c14 -19 26 -43 26
-52 0 -14 -8 -10 -35 16 -32 31 -47 70 -26 70 5 0 20 -15 35 -34z m-425 -22
c20 -26 21 -26 59 -11 l38 15 27 -81 c25 -75 25 -82 10 -99 -15 -17 -15 -20 7
-43 26 -28 16 -33 -18 -9 -13 9 -26 14 -29 11 -3 -3 -15 -2 -28 3 -28 11 -40
-1 -50 -47 l-6 -32 -30 33 c-16 19 -29 45 -29 60 0 17 -14 42 -40 70 -22 24
-40 47 -40 52 0 10 91 104 101 104 4 0 17 -12 28 -26z m1251 16 c0 -5 -2 -10
-4 -10 -3 0 -8 5 -11 10 -3 6 -1 10 4 10 6 0 11 -4 11 -10z m-440 -29 c0 -11
-39 -25 -47 -18 -3 3 -2 10 2 16 8 13 45 15 45 2z m-410 -36 c35 -36 36 -55 3
-34 -15 9 -25 8 -50 -5 l-31 -16 -11 32 c-15 43 -14 46 17 51 15 2 29 5 33 6
3 0 20 -15 39 -34z m1230 26 c0 -6 -4 -13 -10 -16 -5 -3 -10 1 -10 9 0 9 5 16
10 16 6 0 10 -4 10 -9z m-382 -16 c9 -8 -9 -55 -21 -55 -6 1 -20 17 -29 36
l-17 36 31 -6 c18 -3 34 -8 36 -11z m442 -46 c12 -23 20 -43 17 -45 -9 -9 -66
19 -70 34 -3 14 18 52 29 52 2 0 13 -18 24 -41z m-1010 16 c-25 -7 -57 -16
-72 -19 -17 -4 -28 -13 -28 -23 0 -16 9 -16 113 3 31 5 36 4 32 -8 -10 -26
-105 -41 -175 -28 -46 8 -65 8 -75 0 -14 -12 -35 -6 -35 9 0 4 16 15 35 24 19
9 35 20 35 25 0 5 6 9 13 10 41 2 133 15 136 18 2 2 18 4 35 3 28 -1 27 -2
-14 -14z m670 -20 c0 -8 -4 -15 -10 -15 -5 0 -10 7 -10 15 0 8 5 15 10 15 6 0
10 -7 10 -15z m538 -16 c2 -13 -11 -19 -63 -29 -36 -7 -65 -15 -65 -19 1 -24
18 -28 77 -18 61 11 91 4 64 -13 -8 -4 -38 -11 -68 -15 -54 -7 -59 -10 -45
-33 6 -9 21 -10 62 -2 29 5 60 10 69 10 14 0 14 -2 1 -10 -8 -5 -31 -10 -50
-10 -19 0 -68 -10 -107 -21 -83 -25 -106 -18 -97 30 4 19 0 32 -15 45 -34 31
-24 37 30 17 l50 -19 8 21 c5 12 10 31 12 42 3 13 18 23 49 31 57 16 84 13 88
-7z m-2373 -100 c-22 -4 -42 -5 -44 -3 -8 7 12 24 29 24 11 0 23 12 31 33 l12
32 6 -40 6 -40 -40 -6z m1295 61 c0 -15 -59 -42 -83 -37 -21 3 -21 4 -2 12 11
5 31 17 44 27 23 17 41 16 41 -2z m1313 -15 c3 -20 15 -51 26 -69 l21 -33 82
18 c63 14 84 15 90 6 14 -22 9 -25 -49 -38 -67 -14 -75 -19 -64 -38 7 -11 19
-11 60 -2 68 14 81 14 81 -3 0 -9 -19 -16 -57 -21 -69 -8 -74 -11 -66 -31 5
-13 15 -15 52 -9 25 3 54 8 64 11 9 3 17 1 17 -4 0 -6 -31 -16 -70 -23 -72
-13 -76 -15 -62 -37 9 -13 17 -12 132 14 25 5 25 5 5 -14 -12 -12 -56 -28
-114 -40 -85 -18 -98 -19 -123 -6 -22 12 -37 12 -66 4 -71 -19 -76 -17 -99 58
l-20 67 36 11 c35 10 36 13 52 86 14 72 40 128 58 128 5 0 11 -16 14 -35z
m-925 -8 c23 -25 20 -37 -8 -37 -26 0 -52 34 -38 48 17 17 21 15 46 -11z
m-288 -2 c0 -8 -4 -15 -9 -15 -5 0 -11 7 -15 15 -3 9 0 15 9 15 8 0 15 -7 15
-15z m404 -40 c6 -28 5 -29 -8 -12 -8 11 -12 25 -9 33 7 18 9 16 17 -21z
m-451 8 c10 -10 37 -23 59 -28 24 -6 47 -20 57 -34 14 -22 14 -23 -4 -18 -28
9 -40 -2 -54 -45 -12 -38 -13 -38 -66 -38 -50 0 -54 2 -59 28 -9 43 1 134 16
143 19 13 29 11 51 -8z m407 -48 c6 -17 20 -27 40 -31 38 -8 51 -45 26 -73
-21 -23 -76 -33 -76 -14 0 7 -5 13 -11 13 -18 0 -39 27 -54 70 -14 40 -14 40
13 46 15 3 32 7 37 9 6 2 11 4 13 4 1 1 7 -10 12 -24z m-1530 -5 c0 -11 -7
-20 -15 -20 -8 0 -19 9 -25 20 -9 18 -8 20 15 20 18 0 25 -5 25 -20z m-86 -11
c8 -9 4 -10 -16 -5 -25 6 -28 3 -28 -18 0 -13 -7 -29 -15 -36 -14 -11 -22 -7
-56 26 -34 34 -37 40 -22 46 25 11 124 2 137 -13z m-180 -35 c51 -41 86 -87
86 -113 0 -6 -6 -8 -14 -5 -41 16 -142 31 -151 23 -5 -5 -17 -9 -27 -9 -13 0
-18 8 -18 29 0 15 -3 49 -6 75 l-7 46 41 0 c33 0 50 -8 96 -46z m867 -21 c27
-46 32 -137 12 -199 -19 -62 -38 -69 -70 -26 -13 18 -40 34 -76 45 l-55 17 10
43 c14 55 51 96 82 90 17 -4 29 3 45 26 27 38 32 38 52 4z m415 -50 c0 0 -18
-4 -38 -8 -30 -6 -38 -4 -38 8 0 8 8 14 18 13 10 0 23 11 32 30 l15 32 6 -37
c4 -20 6 -37 5 -38z m-1016 42 c0 -17 -4 -18 -51 -8 -28 5 -30 7 -14 14 34 13
65 10 65 -6z m1875 5 c-3 -5 -11 -10 -16 -10 -6 0 -7 5 -4 10 3 6 11 10 16 10
6 0 7 -4 4 -10z m155 0 c0 -14 -24 -22 -52 -18 l-23 5 25 11 c32 14 50 15 50
2z m-2023 -64 c8 -8 -75 -8 -116 0 -17 4 -29 10 -26 13 4 8 133 -3 142 -13z
m2051 -39 c14 -44 14 -49 -1 -65 -16 -15 -15 -18 5 -39 18 -19 19 -23 5 -23
-9 0 -18 4 -21 9 -3 5 -27 12 -53 15 -83 12 -84 13 -77 54 4 20 13 51 20 67
11 27 16 30 59 30 l48 0 15 -48z m-168 32 c0 -7 -5 -29 -11 -50 l-12 -37 -23
28 c-30 35 -30 36 4 54 33 18 42 19 42 5z m-2457 -99 c-3 -11 -9 -20 -13 -20
-15 0 -19 30 -8 62 l12 33 7 -27 c4 -15 5 -37 2 -48z m531 62 c32 -6 36 -9 25
-19 -19 -15 -96 -5 -103 13 -6 16 15 17 78 6z m866 -7 c0 -8 -4 -15 -10 -15
-5 0 -10 7 -10 15 0 8 5 15 10 15 6 0 10 -7 10 -15z m275 5 c-3 -5 -13 -10
-21 -10 -8 0 -14 -8 -14 -19 0 -10 -7 -24 -16 -32 -13 -11 -21 -6 -57 29 l-42
42 78 0 c50 0 76 -4 72 -10z m-157 -46 c47 -41 90 -100 80 -110 -2 -2 -20 1
-39 6 -20 6 -59 11 -88 12 l-52 3 6 30 c3 17 8 47 12 68 3 20 11 37 17 37 6 0
35 -21 64 -46z m866 1 c9 -13 16 -36 16 -50 0 -17 16 -43 45 -74 43 -46 58
-70 34 -55 -6 3 -15 0 -20 -7 -13 -20 -11 -29 6 -29 8 0 15 -5 15 -10 0 -6
-12 -9 -27 -8 -37 4 -44 -27 -9 -36 15 -4 26 -13 26 -22 0 -19 -32 -12 -71 16
-16 11 -35 16 -48 13 -11 -3 -21 -1 -21 4 0 6 -11 21 -24 35 -21 20 -25 34
-27 98 -1 45 2 74 8 73 6 -1 23 16 39 37 16 22 32 40 35 40 4 0 14 -11 23 -25z
m-2329 -17 c-4 -13 -12 -27 -18 -33 -7 -7 -8 -4 -3 8 3 10 6 25 6 33 0 8 5 14
11 14 6 0 8 -9 4 -22z m75 13 c0 -11 -41 -63 -46 -58 -9 9 19 67 32 67 8 0 14
-4 14 -9z m253 -83 c-14 -24 -44 20 -36 52 6 21 7 21 24 -11 9 -19 15 -37 12
-41z m64 56 c9 -24 -19 -37 -34 -17 -18 24 -16 33 7 33 11 0 23 -7 27 -16z
m1583 -5 c0 -5 -13 -9 -30 -9 -35 0 -41 17 -7 22 26 5 37 1 37 -13z m881 -61
c-6 -17 -11 -47 -11 -67 l0 -37 84 -27 c73 -24 83 -30 79 -47 -3 -11 -6 -20
-8 -20 -1 0 -28 9 -60 20 -46 16 -60 17 -66 8 -11 -18 -1 -25 61 -46 30 -10
56 -24 58 -30 5 -17 -20 -15 -78 8 -27 11 -50 18 -50 16 0 -3 -2 -11 -6 -19
-3 -10 12 -21 55 -37 85 -31 77 -44 -9 -15 -61 21 -72 22 -77 9 -7 -20 -6 -21
73 -48 54 -19 65 -25 50 -32 -30 -12 -210 51 -230 81 -10 15 -37 30 -71 41
l-56 18 6 40 c9 52 51 99 81 92 15 -4 26 1 37 17 25 38 97 108 120 116 27 11
32 0 18 -41z m-1261 22 c0 -5 -2 -10 -4 -10 -3 0 -8 5 -11 10 -3 6 -1 10 4 10
6 0 11 -4 11 -10z m838 4 c13 -4 22 -14 22 -25 0 -27 -25 -23 -44 6 -17 26
-15 28 22 19z m-261 -41 c-3 -3 -11 -2 -17 2 -8 5 -7 11 2 22 12 15 13 14 16
-1 2 -10 1 -20 -1 -23z m-333 17 c26 0 106 -58 106 -77 0 -7 11 -20 24 -28 28
-19 41 -55 20 -55 -8 0 -14 4 -14 9 0 15 -100 131 -113 131 -6 0 -26 -14 -44
-32 l-33 -32 0 48 c0 40 3 47 16 42 9 -3 26 -6 38 -6z m126 -5 c0 -9 -6 -12
-15 -9 -8 4 -15 10 -15 15 0 5 7 9 15 9 8 0 15 -7 15 -15z m-1695 -6 c11 -17
-1 -21 -15 -4 -8 9 -8 15 -2 15 6 0 14 -5 17 -11z m225 4 c0 -3 -7 -14 -15
-23 -9 -10 -17 -27 -20 -38 -2 -11 -8 -30 -14 -41 -6 -11 -9 -26 -6 -33 4 -10
-23 -23 -93 -46 -111 -36 -112 -36 -112 -20 0 7 -19 31 -42 55 -33 34 -39 45
-29 56 9 12 19 13 46 4 30 -9 39 -7 83 22 74 47 202 88 202 64z m256 -52 l24
-29 67 25 c66 24 136 34 149 21 3 -4 -7 -18 -23 -32 -16 -13 -37 -40 -48 -59
l-18 -35 56 -62 c32 -36 53 -68 50 -76 -11 -30 -32 -12 -111 94 l-17 23 -78
-50 c-43 -28 -82 -51 -87 -51 -6 0 -10 12 -10 27 0 17 -15 45 -41 75 l-41 48
49 55 c26 29 49 54 51 54 2 1 14 -12 28 -28z m1432 -8 c2 -8 -6 -13 -22 -13
-25 0 -33 10 -19 24 10 10 36 3 41 -11z m-1032 -15 c-3 -13 -6 -27 -6 -33 0
-5 -5 -3 -10 5 -15 23 -12 50 6 50 12 0 15 -6 10 -22z m49 -27 c-3 -12 -11
-21 -16 -21 -6 0 -8 3 -6 8 2 4 7 16 11 26 9 25 20 13 11 -13z m55 -16 c-20
-24 -31 -18 -18 10 8 17 15 22 21 16 7 -7 6 -15 -3 -26z m265 -2 c17 -40 13
-52 -9 -34 -12 10 -19 71 -9 71 2 0 10 -16 18 -37z m65 30 c0 -5 -4 -14 -9
-22 -7 -11 -11 -9 -20 8 -10 18 -9 21 9 21 11 0 20 -3 20 -7z m-1048 -60 c29
-29 40 -34 51 -25 11 9 20 4 44 -26 38 -47 46 -101 19 -130 -16 -19 -16 -22
-2 -50 l16 -31 -43 14 c-23 7 -59 16 -80 20 l-38 6 46 53 c25 29 45 56 45 61
0 4 -25 34 -55 68 -52 57 -64 77 -48 77 4 0 24 -16 45 -37z m1613 27 c3 -6 -1
-7 -9 -4 -18 7 -21 14 -7 14 6 0 13 -4 16 -10z m-675 -61 c0 -6 -4 -7 -10 -4
-5 3 -10 11 -10 16 0 6 5 7 10 4 6 -3 10 -11 10 -16z m790 -21 c0 -18 -23 -2
-32 22 -9 23 -8 23 12 5 11 -10 20 -22 20 -27z m-656 -21 c-3 -15 -10 -24 -15
-21 -11 6 -12 48 -2 58 13 12 24 -11 17 -37z m-174 13 c0 -5 -2 -10 -4 -10 -3
0 -8 5 -11 10 -3 6 -1 10 4 10 6 0 11 -4 11 -10z m226 -25 c-4 -14 -11 -25
-16 -25 -5 0 -5 13 2 31 12 35 23 31 14 -6z m-119 19 c-3 -4 3 -24 14 -45 14
-28 26 -39 42 -39 12 0 28 -4 36 -9 9 -6 -16 -18 -80 -40 -111 -37 -111 -37
-124 -12 -6 11 -23 35 -39 56 -22 27 -26 39 -17 48 8 8 19 8 40 0 26 -9 35 -7
73 18 38 26 72 39 55 23z m-1002 -43 c-10 -16 -25 -3 -25 22 0 20 1 20 16 5 9
-9 13 -21 9 -27z m1441 -2 c10 -21 12 -35 6 -41 -13 -13 -32 20 -29 50 2 29 3
28 23 -9z m81 15 c5 -15 -28 -27 -40 -15 -5 5 -6 14 -2 21 8 13 37 9 42 -6z
m104 2 c-20 -24 -50 -26 -61 -5 -10 17 -7 19 31 19 34 0 39 -2 30 -14z m-231
-91 c0 -5 -5 -3 -10 5 -5 8 -10 20 -10 25 0 6 5 3 10 -5 5 -8 10 -19 10 -25z
m178 13 c1 -7 5 -28 8 -46 5 -26 3 -31 -9 -27 -19 8 -31 -23 -16 -41 6 -7 7
-19 3 -25 -5 -9 -11 -7 -20 6 -11 15 -16 16 -29 5 -8 -7 -12 -17 -8 -23 4 -7
0 -8 -12 -3 -12 4 -26 -1 -42 -16 l-23 -22 -30 35 c-16 19 -29 42 -30 51 0 22
76 75 143 99 63 22 63 22 65 7z m-1673 -29 c11 -17 -1 -21 -15 -4 -8 9 -8 15
-2 15 6 0 14 -5 17 -11z m1450 1 c3 -5 1 -10 -4 -10 -6 0 -11 5 -11 10 0 6 2
10 4 10 3 0 8 -4 11 -10z m526 -16 l27 -26 72 26 c110 40 165 33 114 -15 -14
-13 -34 -38 -45 -56 l-21 -33 57 -65 c50 -56 56 -67 44 -81 -11 -14 -18 -10
-54 32 -25 29 -46 45 -53 40 -19 -11 -15 -20 29 -69 24 -28 37 -51 33 -59 -5
-8 -23 6 -54 41 -37 42 -48 50 -58 39 -8 -11 -2 -25 28 -63 58 -73 49 -80 -13
-11 -43 48 -54 56 -64 45 -9 -12 -2 -26 38 -72 42 -47 47 -57 31 -57 -30 0
-162 153 -162 188 -1 17 -16 44 -40 71 l-38 44 46 54 c26 29 49 53 51 53 3 0
17 -12 32 -26z m-2016 -14 c18 -19 17 -20 -1 -20 -20 0 -44 17 -44 32 0 15 27
8 45 -12z m510 -10 c3 -5 1 -10 -4 -10 -6 0 -11 5 -11 10 0 6 2 10 4 10 3 0 8
-4 11 -10z m953 -12 c5 -7 12 -28 14 -46 l5 -33 -33 32 c-26 25 -31 36 -23 46
14 16 24 17 37 1z m-1520 -17 c23 -27 85 -31 110 -8 17 16 27 16 90 6 67 -11
132 -39 132 -57 0 -4 -19 -13 -43 -19 -24 -7 -54 -21 -67 -31 l-24 -19 17 -77
c18 -79 16 -96 -8 -96 -9 0 -18 21 -26 60 -9 49 -15 60 -31 60 -16 0 -19 -5
-15 -22 3 -13 9 -45 13 -72 5 -39 4 -48 -7 -44 -8 3 -18 28 -23 61 -7 47 -12
57 -28 57 -18 0 -19 -4 -14 -37 4 -21 10 -53 13 -72 3 -21 2 -32 -4 -28 -5 3
-15 38 -22 77 -13 70 -16 76 -38 62 -9 -5 -8 -24 3 -76 8 -38 13 -71 10 -73
-13 -13 -34 37 -50 120 -16 78 -17 101 -7 125 11 26 10 48 -6 105 -6 23 5 22
25 -2z m529 -8 c3 -7 -4 -9 -16 -6 -12 3 -18 9 -15 15 7 11 26 6 31 -9z m1328
-51 c-9 -9 -55 40 -48 51 4 6 16 -2 30 -18 13 -15 22 -30 18 -33z m-1065 30
c0 -4 -9 -13 -20 -20 -11 -7 -20 -18 -20 -24 0 -7 -12 -25 -27 -40 l-27 -28
38 -77 c29 -59 34 -78 24 -84 -21 -14 -22 -12 -51 46 -15 30 -31 55 -36 55
-22 0 -20 -22 6 -74 21 -43 24 -59 15 -68 -8 -8 -17 3 -38 50 -18 42 -30 59
-40 55 -20 -7 -17 -27 11 -83 27 -54 30 -64 15 -55 -6 4 -24 33 -40 66 -17 32
-34 59 -40 59 -21 0 -19 -23 10 -79 35 -69 35 -72 15 -65 -8 4 -35 43 -60 89
-35 63 -45 93 -45 127 0 30 -9 61 -26 92 -22 39 -23 47 -10 52 8 3 25 -1 38
-10 28 -20 72 -21 88 -2 6 8 24 17 38 19 50 7 182 7 182 -1z m700 -44 c16 -22
30 -51 30 -63 l0 -21 -72 18 c-39 10 -73 19 -75 21 -5 6 68 87 78 87 5 0 22
-19 39 -42z m-406 -47 c-3 -3 -12 3 -20 13 -11 15 -11 22 -2 34 10 12 14 10
20 -14 4 -15 5 -30 2 -33z m486 18 c0 -18 -18 -9 -23 12 -4 16 -3 18 9 8 8 -6
14 -15 14 -20z m-264 -16 c-7 -7 -26 7 -26 19 0 6 6 6 15 -2 9 -7 13 -15 11
-17z m-211 -51 c43 5 44 5 52 -31 7 -25 5 -46 -4 -69 -8 -19 -11 -42 -8 -52 4
-12 -1 -22 -12 -29 -17 -9 -16 -13 10 -65 29 -61 33 -76 17 -76 -5 0 -22 24
-36 53 -32 63 -30 61 -48 54 -13 -5 -11 -16 14 -72 38 -84 24 -85 -18 0 -17
36 -36 65 -42 65 -24 0 -20 -32 9 -83 35 -62 37 -67 16 -67 -24 0 -109 177
-106 222 1 23 -8 56 -23 87 l-25 49 62 39 62 40 18 -35 c18 -33 21 -34 62 -30z
m765 19 c0 -6 -4 -13 -10 -16 -5 -3 -10 1 -10 9 0 9 5 16 10 16 6 0 10 -4 10
-9z m-654 -26 c4 -8 15 -15 25 -15 28 0 23 -13 -11 -32 -17 -9 -30 -13 -30 -9
0 5 -3 23 -6 40 -7 32 11 45 22 16z m239 -7 c74 -19 126 -58 78 -58 -23 0
-123 -47 -123 -57 0 -4 7 -35 15 -68 20 -83 19 -105 -4 -105 -15 0 -20 10 -26
46 -9 62 -14 74 -32 74 -13 0 -15 -9 -9 -54 3 -30 9 -61 12 -70 4 -10 1 -16
-9 -16 -9 0 -18 12 -21 30 -3 17 -9 44 -12 61 -4 21 -11 29 -22 27 -13 -2 -16
-12 -14 -38 2 -27 0 -31 -7 -20 -6 8 -11 23 -11 32 0 9 -6 23 -14 30 -7 8 -21
28 -30 45 -16 32 -16 32 17 56 17 13 47 30 65 37 35 13 38 20 21 37 -32 32 23
37 126 11z m315 -68 c0 -5 -2 -10 -4 -10 -3 0 -8 5 -11 10 -3 6 -1 10 4 10 6
0 11 -4 11 -10z m-42 -30 c10 -17 10 -20 -2 -20 -13 0 -46 25 -46 36 0 13 37
1 48 -16z m5 -60 c25 0 39 6 46 19 10 17 15 17 85 5 72 -12 128 -34 140 -53 4
-5 -17 -17 -46 -25 -91 -28 -92 -30 -72 -126 15 -69 16 -83 4 -90 -21 -13 -26
-6 -39 60 -7 33 -14 60 -16 60 -2 0 -10 -2 -18 -6 -12 -4 -12 -14 -1 -67 8
-38 9 -66 4 -71 -14 -15 -20 -4 -31 63 -9 49 -15 61 -28 58 -9 -2 -15 -7 -15
-13 1 -5 5 -36 8 -69 7 -66 -7 -58 -18 10 -11 62 -16 75 -32 75 -17 0 -18 -22
-3 -90 11 -51 7 -72 -11 -54 -5 5 -18 53 -30 107 -18 81 -19 103 -9 130 8 24
9 46 1 81 l-10 48 27 -26 c19 -18 38 -26 64 -26z m-499 -102 c-11 -18 -22 -6
-33 36 -17 68 -12 76 14 22 13 -28 22 -53 19 -58z m65 -45 c0 -25 -1 -26 -9
-8 -12 27 -12 35 0 35 6 0 10 -12 9 -27z m-49 -19 c0 -8 -4 -12 -10 -9 -5 3
-10 10 -10 16 0 5 5 9 10 9 6 0 10 -7 10 -16z"/>
<path d="M3511 3997 c-38 -19 -60 -57 -78 -134 -19 -80 -39 -99 -73 -68 -17
16 -23 16 -94 0 -55 -12 -76 -21 -76 -32 0 -26 72 -247 85 -261 10 -11 24 -11
76 -1 78 14 100 25 93 43 -10 25 84 43 121 24 23 -13 41 -11 146 11 111 24
121 28 139 57 l20 30 -36 110 c-20 60 -40 113 -45 118 -5 6 -40 3 -89 -8 -44
-9 -85 -14 -90 -11 -12 7 -30 72 -30 108 0 21 -5 27 -22 27 -13 0 -34 -6 -47
-13z m29 -53 c0 -8 10 -38 21 -65 24 -56 27 -56 129 -34 49 10 67 11 72 2 14
-22 8 -26 -52 -38 -65 -13 -73 -18 -61 -38 7 -11 19 -11 60 -2 68 14 81 14 81
-3 0 -9 -19 -16 -59 -20 -65 -7 -72 -11 -64 -33 6 -14 28 -14 117 4 16 3 26 1
23 -4 -3 -5 -38 -15 -77 -22 -71 -13 -76 -16 -61 -39 6 -11 20 -10 76 3 37 8
70 14 72 12 12 -13 -45 -37 -124 -54 -79 -17 -97 -18 -123 -6 -24 10 -43 10
-82 2 -27 -6 -54 -7 -58 -3 -5 5 -18 37 -28 72 l-20 62 27 6 c14 3 31 7 37 9
7 2 17 35 24 73 11 68 40 132 60 132 5 0 10 -7 10 -16z"/>
<path d="M118 1564 c-75 -48 -118 -82 -118 -92 1 -10 16 -44 35 -77 24 -43 40
-59 53 -58 26 3 65 -79 57 -118 -5 -22 6 -52 49 -137 50 -96 60 -110 90 -119
32 -10 39 -7 140 58 l106 69 -41 81 c-47 94 -45 98 39 136 l52 23 -23 37 c-31
50 -80 67 -169 60 -60 -5 -69 -4 -78 13 -8 14 -7 25 2 40 11 17 8 29 -24 87
-20 37 -40 69 -45 70 -4 2 -61 -31 -125 -73z m164 -156 l15 -32 97 3 c124 3
145 -9 84 -49 -24 -15 -51 -36 -62 -48 -18 -20 -17 -22 23 -95 31 -56 38 -76
29 -85 -20 -20 -27 -14 -54 43 -15 30 -28 55 -29 55 -2 0 -10 -3 -19 -6 -13
-5 -11 -15 14 -65 34 -67 35 -69 17 -69 -7 0 -25 25 -40 55 -19 39 -31 53 -42
49 -19 -8 -20 -3 10 -70 36 -82 30 -90 -11 -11 -31 61 -50 78 -67 61 -3 -4 8
-34 26 -68 17 -33 33 -64 35 -68 2 -3 -5 -4 -16 -2 -28 8 -113 185 -106 222 4
20 -2 45 -21 81 -14 29 -25 54 -23 56 17 14 114 75 119 75 3 0 12 -14 21 -32z"/>
</g>
</svg>
